<svg xmlns="http://www.w3.org/2000/svg" width="274.078" height="173.565" viewBox="0 0 274.078 173.565">
  <g id="Group_92" data-name="Group 92" transform="translate(14.725 0.002)">
    <path id="Path_538" data-name="Path 538" d="M256.1,131.177c-16.167-.562-31.565-5.78-46.271-11.491s-29.267-12.038-45.047-15.063c-10.15-1.946-21.755-2.221-29.934,3.22-7.869,5.246-10.412,14.276-11.781,22.662-1.027,6.313-1.634,12.952,1.187,18.86,1.956,4.1,5.431,7.549,7.834,11.478,8.358,13.669,2.451,30.526-6.61,43.873-4.247,6.26-9.178,12.24-12.458,18.9s-4.8,14.3-1.928,21.1c2.845,6.745,9.622,11.8,16.962,15.36,14.911,7.229,32.474,9.3,49.616,10.472,37.925,2.6,76.055,1.471,114.08.347,14.074-.417,28.208-.839,42.052-3.015,7.689-1.209,15.628-3.128,21.208-7.744,7.084-5.878,8.841-15.833,4.094-23.2-7.964-12.363-29.976-15.435-35.549-28.7-3.065-7.3.082-15.438,4.534-22.21,9.552-14.531,25.562-27.276,26.407-43.885.58-11.406-7.117-22.829-19.017-28.228-12.475-5.658-29.772-4.946-38.969,4.419C287.023,127.962,270.371,131.671,256.1,131.177Z" transform="translate(-102.406 -103.35)" fill="#fff" opacity="0.1"/>
    <g id="Group_7" data-name="Group 7" transform="translate(59.705 40.776) rotate(70)">
      <path id="Path_245" data-name="Path 245" d="M18.244,2.753A8.4,8.4,0,0,1,20.2,9.325L.065,12.859A11.223,11.223,0,0,1,4.02,3.046C8.5-.89,14.894-1.037,18.244,2.753Z" transform="translate(41.275 6.035)" fill="#ff7f8e"/>
      <path id="Path_248" data-name="Path 248" d="M0,5.694l2.288,2.6A18.967,18.967,0,0,1,8.257,2.8l.513-.2C12.046,1.465,6.481,0,6.481,0S.421,3.68,0,5.694Z" transform="translate(28.031 6.188)" fill="#94cc79"/>
      <path id="Path_256" data-name="Path 256" d="M97.5,0s4.668,2.838,2.508,6.737c-1.044,1.831-10.984,10.984-21.127,19.9-4.961,4.394-9.977,8.769-13.968,12.266-4.906,4.266-8.312,7.195-8.312,7.195l-2.874,1.831L36.486,58.748,20.266,68.927l-7.8,2.746L0,41.942,7.048,6.628l6.536,1.043,1.135.183,14.756-1.3L71.124,2.893,89.87,1.227l2.2-.2Z" transform="translate(10.602 0)" fill="#ffe09c"/>
      <path id="Path_257" data-name="Path 257" d="M10.181,72.925S-3.842,40.759,1.027,23.495c0,0,3.661-14.939,7.744-20.98,0,0,2.783-6.353,13.785,1.135,0,0-11.57,22.207-5.035,42.107L24.149,65.51Z" transform="translate(0 3.929)" fill="#e7c4c3"/>
      <ellipse id="Ellipse_18" data-name="Ellipse 18" cx="10.801" cy="9.154" rx="10.801" ry="9.154" transform="translate(17.535 48.949) rotate(-63.6)" fill="#ff7f8e"/>
      <ellipse id="Ellipse_19" data-name="Ellipse 19" cx="10.801" cy="9.154" rx="10.801" ry="9.154" transform="translate(42.262 25.25) rotate(-63.6)" fill="#ff7f8e"/>
      <path id="Path_258" data-name="Path 258" d="M17.806,0a11.278,11.278,0,0,1-.11,10.325c-2.655,5.346-8.458,7.854-13,5.6S-1.344,7.543,1.311,2.2q.275-.549.6-1.08L3.05,1.3Z" transform="translate(22.253 6.536)" fill="#ff7f8e"/>
      <path id="Path_259" data-name="Path 259" d="M14.287.816a8.4,8.4,0,0,1,4.284,5.346L1.325,16.982a11.223,11.223,0,0,1,0-10.582C4.035,1.091,9.765-1.417,14.287.816Z" transform="translate(45.745 41.73)" fill="#ff7f8e"/>
      <path id="Path_260" data-name="Path 260" d="M14.268.819a8.769,8.769,0,0,1,4.65,7.195C13.957,12.407,8.941,16.783,4.95,20.279l-.256-.128C.172,17.9-1.348,11.766,1.307,6.421S9.746-1.415,14.268.819Z" transform="translate(70.57 18.624)" fill="#ff7f8e"/>
      <path id="Path_261" data-name="Path 261" d="M18.765,0a12.575,12.575,0,0,1-1.117,3.314c-2.655,5.346-8.458,7.854-13,5.6A8.787,8.787,0,0,1,0,1.593Z" transform="translate(81.689 1.172)" fill="#ff7f8e"/>
      <path id="Path_262" data-name="Path 262" d="M.023,7.825,3.117,9.363A18.966,18.966,0,0,1,6.577,2.04l.384-.384C9.579-.633,3.867.118,3.867.118S-.344,5.866.023,7.825Z" transform="translate(32.017 49.367)" fill="#94cc79"/>
      <path id="Path_263" data-name="Path 263" d="M.025,7.825,3.119,9.363A18.968,18.968,0,0,1,6.579,2.04l.384-.384C9.581-.633,3.869.118,3.869.118S-.36,5.811.025,7.825Z" transform="translate(34.816 23.224)" fill="#94cc79"/>
      <path id="Path_264" data-name="Path 264" d="M.023,7.825,3.116,9.363A18.968,18.968,0,0,1,6.577,2.04l.384-.385C9.579-.633,3.867.118,3.867.118S-.344,5.793.023,7.825Z" transform="translate(47.304 24.743)" fill="#94cc79"/>
      <path id="Path_265" data-name="Path 265" d="M.023,7.825,3.116,9.363A18.968,18.968,0,0,1,6.577,2.04l.384-.385C9.579-.633,3.867.118,3.867.118S-.344,5.793.023,7.825Z" transform="translate(69.218 20.075)" fill="#94cc79"/>
      <path id="Path_266" data-name="Path 266" d="M.023,7.825,3.116,9.363A18.967,18.967,0,0,1,6.577,2.04l.384-.385C9.579-.633,3.867.118,3.867.118S-.344,5.793.023,7.825Z" transform="translate(94.994 3.342)" fill="#94cc79"/>
      <path id="Path_267" data-name="Path 267" d="M.023,7.825,3.116,9.363A18.968,18.968,0,0,1,6.577,2.04l.384-.384C9.579-.633,3.867.118,3.867.118S-.344,5.793.023,7.825Z" transform="translate(67.735 6.931)" fill="#94cc79"/>
      <path id="Path_268" data-name="Path 268" d="M9.68,77.466S-1.067,82.427.087,72.706A38.226,38.226,0,0,1,16.856,63s44.066-23.928,47.8-30.354c0,0,35.132-29.658,35.5-32.605,0,0,3.533-1.19-3.442,8.787S61.929,41.583,61.929,41.583L31.117,63.552l-12.5,5.492Z" transform="translate(10.094 4.148)" fill="#e7c4c3"/>
      <path id="Path_269" data-name="Path 269" d="M9.68,77.466S-1.067,82.427.087,72.706A38.226,38.226,0,0,1,16.856,63s44.066-23.928,47.8-30.354c0,0,35.132-29.658,35.5-32.605,0,0,3.533-1.19-3.442,8.787S61.929,41.583,61.929,41.583L31.117,63.552l-12.5,5.492Z" transform="translate(10.094 4.148)" fill="#fff" opacity="0.2"/>
    </g>
    <g id="Group_89" data-name="Group 89" transform="translate(74.788 30.639)" opacity="0.8">
      <line id="Line_12" data-name="Line 12" x2="156.142" transform="translate(7.659 41.924)" fill="none" stroke="#3f3d56" stroke-miterlimit="10" stroke-width="3"/>
      <path id="Path_558" data-name="Path 558" d="M466.46,353.036s7.467,1.037,3.6-6.975,10.492-6.495,10.492-6.495" transform="translate(-444.93 -311.114)" fill="none" stroke="#3f3d56" stroke-miterlimit="10" stroke-width="3"/>
      <path id="Path_559" data-name="Path 559" d="M665.53,393.7s7.467-1.034,3.6,6.977,10.492,6.495,10.492,6.495" transform="translate(-594.271 -351.777)" fill="none" stroke="#3f3d56" stroke-miterlimit="10" stroke-width="3"/>
      <path id="Path_560" data-name="Path 560" d="M909.841,393.7s-7.469-1.034-3.6,6.977-10.492,6.495-10.492,6.495" transform="translate(-766.982 -351.777)" fill="none" stroke="#3f3d56" stroke-miterlimit="10" stroke-width="3"/>
      <line id="Line_13" data-name="Line 13" x1="41.2" transform="translate(87.568 55.391)" fill="none" stroke="#3f3d56" stroke-miterlimit="10" stroke-width="3"/>
      <circle id="Ellipse_132" data-name="Ellipse 132" cx="4.559" cy="4.559" r="4.559" transform="translate(3.1 37.366)" fill="#82ddff"/>
      <circle id="Ellipse_133" data-name="Ellipse 133" cx="4.559" cy="4.559" r="4.559" transform="translate(31.14 23.829)" fill="#3acc6c"/>
      <circle id="Ellipse_134" data-name="Ellipse 134" cx="4.559" cy="4.559" r="4.559" transform="translate(31.14 37.366)" fill="#82ddff"/>
      <circle id="Ellipse_135" data-name="Ellipse 135" cx="4.559" cy="4.559" r="4.559" transform="translate(49.236 37.366)" fill="#82ddff"/>
      <circle id="Ellipse_136" data-name="Ellipse 136" cx="4.559" cy="4.559" r="4.559" transform="translate(80.866 50.765)" fill="#ff6584"/>
      <circle id="Ellipse_137" data-name="Ellipse 137" cx="4.559" cy="4.559" r="4.559" transform="translate(104.767 50.765)" fill="#ff6584"/>
      <circle id="Ellipse_138" data-name="Ellipse 138" cx="4.559" cy="4.559" r="4.559" transform="translate(103.521 37.366)" fill="#82ddff"/>
      <circle id="Ellipse_139" data-name="Ellipse 139" cx="4.559" cy="4.559" r="4.559" transform="translate(158.088 37.366)" fill="#9ae3ff"/>
      <circle id="Ellipse_140" data-name="Ellipse 140" cx="4.559" cy="4.559" r="4.559" transform="translate(135.765 37.366)" fill="#82ddff"/>
      <rect id="Rectangle_71" data-name="Rectangle 71" width="15.295" height="10.542" fill="#63d5ff"/>
      <rect id="Rectangle_72" data-name="Rectangle 72" width="15.295" height="10.542" transform="translate(28.108)" fill="#3acc6c"/>
      <rect id="Rectangle_73" data-name="Rectangle 73" width="15.295" height="10.542" transform="translate(77.714)" fill="#ff6584"/>
    </g>
  </g>
</svg>
