<svg xmlns="http://www.w3.org/2000/svg" xmlns:xlink="http://www.w3.org/1999/xlink" width="401.348" height="678.516" viewBox="0 0 401.348 678.516">
  <defs>
    <linearGradient id="linear-gradient" y1="0.5" x2="1" y2="0.5" gradientUnits="objectBoundingBox">
      <stop offset="0" stop-color="gray" stop-opacity="0.251"/>
      <stop offset="0.54" stop-color="gray" stop-opacity="0.122"/>
      <stop offset="1" stop-color="gray" stop-opacity="0.102"/>
    </linearGradient>
  </defs>
  <g id="Group_163" data-name="Group 163" transform="translate(-2273.034 -4113.111)">
    <g id="Group_156" data-name="Group 156" transform="translate(2095.004 4016.997)">
      <ellipse id="Ellipse_159" data-name="Ellipse 159" cx="176.1" cy="33.36" rx="176.1" ry="33.36" transform="translate(178.03 707.91)" fill="#7c7c7c" opacity="0.1"/>
      <path id="Path_700" data-name="Path 700" d="M630.35,416.77l-30.63-20.65h0l15.45-23-80.9-6.45L505.2,389.15l-36.39-20.4-30.35,3.65-.36-8a225.786,225.786,0,0,0-2.51-24.9c.13-2.5.22-5.37.21-8.49,0-13.15-1.78-30.58-9.6-42.2l1.8-16.18-14.6-17.25a110.366,110.366,0,0,1,8-13.46c.5-.72,1-1.42,1.54-2.1a36.309,36.309,0,0,0,33.9-36,23.036,23.036,0,0,0-.1-2.63,9.527,9.527,0,0,0-.11-1.06c1.85,1,3.72,2,5.59,3,.35.5.75,1,1.19,1.59h0l.09.11.56.69.18.21c.2.24.41.47.62.71l.14.16c.53.59,1.09,1.19,1.69,1.78a1.8,1.8,0,0,1,.2.19l.75.7.21.19c.64.57,1.32,1.12,2,1.64l.22.16.86.59.28.18c.33.2.67.41,1,.6l.12.07c.39.21.79.41,1.19.6l.2.08q.51.22,1,.42l.31.11c.35.12.69.23,1.05.33l.22.06c.44.11.88.2,1.33.27h.05a10.877,10.877,0,0,0,1.28.13h.29a10.993,10.993,0,0,0,1.15,0h.25a11.846,11.846,0,0,0,1.43-.17,15.78,15.78,0,0,0,6.3-2.26,5.5,5.5,0,0,0,1.28-1.19c2-2.62-.2-5.49-.2-5.49h0c-.78-1.86-5.84-3.17-5.84-3.17s-16-6.68-16-12-4-32.92-45.29-39.23c0,0-26.86-1.51-34.41,12.87l-.16,1.68c-2.22,1.39-4.06,4.18-6.25,5a10.211,10.211,0,0,0-2.71,1v-.19h0a2.579,2.579,0,0,0-.61.79,8,8,0,0,0-.83,3,11.3,11.3,0,0,1-1.31,3.63,8.076,8.076,0,0,1-.6.92h0l-.17.27a7.3,7.3,0,0,0,3.4-.55,16.93,16.93,0,0,1-1,4,3.32,3.32,0,0,0,3.08-1.84v-.08l.13-.18a8.439,8.439,0,0,0,.62-1.45l-.11.12c.2-.65.38-1.31.6-1.95a3.06,3.06,0,0,1,.49-1,2.42,2.42,0,0,1,2.07-.69l-.41,8.67h.18a11.832,11.832,0,0,1-.88,1.82c-1.42,2.3-4,3.87-4.95,6.39a9.4,9.4,0,0,0-.46,3.78c0,.75.09,1.51.15,2.26v-.06c.14,2,.18,3.9-.9,5.51-.74,1.1-1.93,1.93-2.34,3.18a3.1,3.1,0,0,0-.15,1.08,12.129,12.129,0,0,0,.68,3.21.14.14,0,0,0,0-.06,4.88,4.88,0,0,1,.17,2.36c-.45,2-2.88,3.67-2.76,5.58a2.149,2.149,0,0,0,.11.74,4.05,4.05,0,0,0,2.26,2,8.8,8.8,0,0,0,5.08,1.12,6.68,6.68,0,0,0,1.9-.65c-.7,1.61-1.42,3.2-2.15,4.71-.11.24-.23.48-.35.72,0,0-6.18-4.13-9.69,4.29a18.68,18.68,0,0,0-2.17,5.64,13.422,13.422,0,0,1-.74,2.32,14.93,14.93,0,0,1-6.68,6c-7.16,3.28-36.08,39.35-36.59,48.69a54.49,54.49,0,0,1-1.84,10.78,64.149,64.149,0,0,0-1.72,25.49,48.772,48.772,0,0,0,1.77,8.13c3.07,9.33,5.12,26.74,5.12,26.74l3.32,30.22a86,86,0,0,0,.54,12.49c-3.39,3.87-17,20-11.8,24.39,4,3.46,11,2.89,14.93,2.18-3.31,8.19-8.52,22.43-9.21,32.21-1,14.47,1.71,33.64,6,41s18.59,26.24,18.59,26.24-.67,25.9,4.44,35.31,7.17,28.93,7.17,28.93,4.77,16.48,2.38,22.54,4.43,11.1-2.73,15.13-16.32,94.86-16.32,94.86-3.69,59.53,0,62.56a3.752,3.752,0,0,0,.63.37v20s-2.56,4.2,7.85,5.05c7.13.57,27.34,1.86,39.33,2.61l9.29.58s22,4.38,31.72,0,26.95-4.28,24.39-15.85a32.917,32.917,0,0,0-1.36-4.63c-2.81-7.18-7.58-8-16.37-10-.51-.11-1-.21-1.45-.29-9.26-1.61-12.3,2.7-17.49-2.91-4.51-4.85-18.87-10.28-23.76-12,.12-.36.27-.71.39-1.08a7.32,7.32,0,0,1-3.71-1.81l13.25.84,7.89.49s18.7,3.73,27,0,22.9-3.63,20.72-13.46a28.206,28.206,0,0,0-1.15-3.94c-2.39-6.1-6.45-6.77-13.92-8.46-.43-.09-.83-.18-1.23-.25-7.87-1.37-10.45,2.29-14.86-2.47-3.78-4.06-15.71-8.61-20-10.16,0-2.22-3-5.38-4.89-8.55-2.22-3.7,1.88-16.65,1.88-16.65L411,658.74a10.379,10.379,0,0,1,2.8-.8s10.58-10.1,8.19-20.86a69.136,69.136,0,0,1-.76-9.83c3.48-3.23,8.27-8,9.63-10.94,2.22-4.79,0-28,0-28V499.56l17.7,1.79L464.62,503l4.89.5,16.06,1.62,36.91,3.73,33.26-6.3,14.39-2.72,29.59-5.6v-72.4ZM386.74,176.86l-2.06-.22C385.36,176.67,386.08,176.8,386.74,176.86Z" transform="translate(-95.23 -55.03)" fill="url(#linear-gradient)"/>
      <path id="Path_701" data-name="Path 701" d="M558.56,463.78c-10,14.31-45.95,6.73-45.95,6.73l-27.86-26.07L481,440.91l6.29-13.36s2,.55,5.43,1.53C510.73,434.31,567,451.75,558.56,463.78Z" transform="translate(-95.23 -55.03)" fill="#efb7b9"/>
      <path id="Path_702" data-name="Path 702" d="M492.7,429.08c-1.23,4.28-4.6,10.69-7.95,15.36L481,440.91l6.29-13.36S489.31,428.1,492.7,429.08Z" transform="translate(-95.23 -55.03)" opacity="0.1"/>
      <path id="Path_703" data-name="Path 703" d="M397.15,278.42s-25.68,11.39-24.42,39.36a461.145,461.145,0,0,0,5.88,53.76s-5.25,42.09,16.61,52.94,42.09,19.77,42.09,19.77,34.2,3.68,38.45,5.2,17.53-21.72,15.08-25.34S457,412.9,453,406.86s-13.25-9.77-13.25-9.77-9.55-5.78-10.2-11,1.87-9.11,2.51-11.4,2.26-24.4,2.26-24.4S445.1,271.59,397.15,278.42Z" transform="translate(-95.23 -55.03)" fill="#dce6f2"/>
      <path id="Path_704" data-name="Path 704" d="M414.1,370.39s-35.23,5.9-31.82,18.23C382.28,388.62,395.07,375.31,414.1,370.39Z" transform="translate(-95.23 -55.03)" opacity="0.1"/>
      <path id="Path_705" data-name="Path 705" d="M414.37,375.38S395,391.19,398.79,392,414.37,375.38,414.37,375.38Z" transform="translate(-95.23 -55.03)" opacity="0.1"/>
      <path id="Path_706" data-name="Path 706" d="M423.68,380.89s-5.19,10.63-2,9.91S423.68,380.89,423.68,380.89Z" transform="translate(-95.23 -55.03)" opacity="0.1"/>
      <path id="Path_707" data-name="Path 707" d="M494,430.21l-2.14-.61c.61-2,.78-3.62.28-4.37-2.45-3.62-33.82-11.2-37.81-17.25s-13.25-9.77-13.25-9.77-9.55-5.78-10.2-11,1.87-9.11,2.51-11.4,2.26-24.41,2.26-24.41,10.75-78.69-37.2-71.86c0,0-25.68,11.4-24.43,39.37a459.865,459.865,0,0,0,5.89,53.76s-5.25,42.09,16.61,52.94,42.09,19.77,42.09,19.77,34.19,3.67,38.45,5.2c1.61.58,4.52-2.41,7.37-6.52l1.62,1.51,27.86,26.06s35.95,7.59,45.95-6.72C568.31,452.87,512.05,435.43,494,430.21Z" transform="translate(-95.23 -55.03)" opacity="0.1"/>
      <path id="Path_708" data-name="Path 708" d="M382.37,173.44a8.5,8.5,0,0,0-2.77,1.07c-1,.83-1,2.25-1.25,3.49a11.481,11.481,0,0,1-2,4.78,7.19,7.19,0,0,0,3.33-.55,17.139,17.139,0,0,1-1,4,3.24,3.24,0,0,0,3-1.83,19.261,19.261,0,0,0,1.25-3.51,2.89,2.89,0,0,1,.48-1c.92-1.09,2.63-.6,4.05-.46a6.65,6.65,0,0,0,6.08-2.92c1.51-2.29,1.6-8.15-2-8.77C387.78,167.12,385.44,172.3,382.37,173.44Z" transform="translate(-95.23 -55.03)" fill="#121212"/>
      <g id="Group_154" data-name="Group 154" opacity="0.1">
        <path id="Path_709" data-name="Path 709" d="M379.5,175.74c.09-.49.15-1,.26-1.49h0c-.95.83-1,2.24-1.25,3.49a11,11,0,0,1-.59,2.11,11.459,11.459,0,0,0,1.58-4.11Z" transform="translate(-95.23 -55.03)"/>
        <path id="Path_710" data-name="Path 710" d="M379.82,184a16.63,16.63,0,0,0,1-4,7.16,7.16,0,0,1-3.17.55,11.569,11.569,0,0,1-1.15,2,7.12,7.12,0,0,0,3.32-.54,16.628,16.628,0,0,1-1,4,3.25,3.25,0,0,0,3-1.83,7.461,7.461,0,0,0,.6-1.43,3,3,0,0,1-2.6,1.25Z" transform="translate(-95.23 -55.03)"/>
        <path id="Path_711" data-name="Path 711" d="M388.6,177.2c-1.42-.14-3.14-.63-4.06.46a3.09,3.09,0,0,0-.48,1c-.09.26-.17.53-.24.8.95-.75,2.49-.35,3.78-.22a6.68,6.68,0,0,0,6.08-2.92,5.54,5.54,0,0,0,.67-1.57,6.66,6.66,0,0,1-5.75,2.45Z" transform="translate(-95.23 -55.03)"/>
      </g>
      <path id="Path_712" data-name="Path 712" d="M317.24,201l15.25,18.34-1.99,18.51L312.07,209Z" fill="#dce6f2"/>
      <path id="Path_713" data-name="Path 713" d="M332.48,219.34l-1.87,17.41-.12,1.1-16.63-26.04L312.07,209l.52-.81,4.64-7.19,1.03,1.24Z" opacity="0.1"/>
      <path id="Path_714" data-name="Path 714" d="M435.63,231.2c-5.16,1.48-10.09,6.56-14.38,12.73a108.642,108.642,0,0,0-7.76,13.34c-1.41,2.82-2.65,5.53-3.68,7.89l-.72,1.68c-1.74,4.11-2.71,6.86-2.71,6.86S366.88,244,373.13,242c2.1-.67,4.86-5.17,7.59-10.84l.34-.72c1.73-3.64,3.43-7.7,4.94-11.52,3.09-7.85,5.38-14.67,5.38-14.67S451.38,226.7,435.63,231.2Z" transform="translate(-95.23 -55.03)" fill="#efb7b9"/>
      <path id="Path_715" data-name="Path 715" d="M459.26,202.58s9.12,16.5,21.37,14.25,7.21-8.86,7.21-8.86Z" transform="translate(-95.23 -55.03)" fill="#444053"/>
      <path id="Path_716" data-name="Path 716" d="M441.59,773.73c-8.08,3.69-26.35,0-26.35,0l-7.7-.48c-10-.64-26.74-1.72-32.66-2.2-8.64-.71-6.52-4.25-6.52-4.25V745.41l41.92-10.62s16.57,5.67,21.11,10.62c4.31,4.72,6.83,1.09,14.52,2.45.38.07.78.15,1.2.25,7.3,1.67,11.26,2.33,13.6,8.38a28.1,28.1,0,0,1,1.13,3.9C464,770.13,449.66,770.06,441.59,773.73Z" transform="translate(-95.23 -55.03)" fill="#a36468"/>
      <path id="Path_717" data-name="Path 717" d="M460.71,756.49a31.33,31.33,0,0,1-4.72,2.42c-5.5,2.51-10.73,5.57-16.29,7.94s-11.55,4.06-17.57,3.61c-3.15-.23-6.37-1-9.38-.1a21.66,21.66,0,0,0-5.21,2.89c-10-.64-26.74-1.72-32.66-2.2-8.64-.71-6.52-4.25-6.52-4.25v-2.5c.31,0,.66-.09,1.06-.12a18.879,18.879,0,0,1,6.1.91c4.34,1.18,8.66,2.34,13,3.5a10.27,10.27,0,0,1,5-6.38,15.94,15.94,0,0,1,8.06-1.85c6.73.09,13.1,3.28,19.82,3.6a10.92,10.92,0,0,0,5.49-.92c.92-.46,1.73-1.13,2.63-1.64a19.2,19.2,0,0,1,4.53-1.53A99.763,99.763,0,0,0,447,755.69c1.2-.47,2.6-1.32,2.44-2.6-.21-1.7-2.88-1.9-3.58-3.46a2,2,0,0,1,.08-1.77c.38.07.78.15,1.2.25C454.41,749.78,458.37,750.44,460.71,756.49Z" transform="translate(-95.23 -55.03)" opacity="0.1"/>
      <path id="Path_718" data-name="Path 718" d="M433.05,820.53c-9.5,4.34-31,0-31,0L393,820c-11.72-.75-31.46-2-38.43-2.59-10.17-.84-7.67-5-7.67-5V787.2l49.33-12.5s19.5,6.67,24.84,12.5c5.07,5.55,8,1.28,17.09,2.88.45.08.92.18,1.41.29,8.59,2,13.25,2.75,16,9.87a32.1,32.1,0,0,1,1.33,4.59C459.38,816.29,442.55,816.2,433.05,820.53Z" transform="translate(-95.23 -55.03)" fill="#a36468"/>
      <path id="Path_719" data-name="Path 719" d="M455.55,800.24a37.23,37.23,0,0,1-5.55,2.85c-6.47,2.95-12.63,6.55-19.17,9.34s-13.59,4.77-20.68,4.25c-3.7-.27-7.49-1.2-11-.12A25.5,25.5,0,0,0,393,820c-11.72-.75-31.46-2-38.43-2.59-10.17-.84-7.67-5-7.67-5v-2.94a12.526,12.526,0,0,1,1.25-.14,21.94,21.94,0,0,1,7.18,1.07l15.29,4.12a12.1,12.1,0,0,1,5.93-7.51,18.661,18.661,0,0,1,9.49-2.18c7.92.11,15.41,3.86,23.32,4.24A12.911,12.911,0,0,0,415.8,808c1.09-.55,2-1.34,3.1-1.93a21.75,21.75,0,0,1,5.33-1.8,119.707,119.707,0,0,0,15.16-4.92c1.41-.56,3.06-1.56,2.87-3.06-.25-2-3.39-2.24-4.22-4.08a2.41,2.41,0,0,1,.1-2.08c.45.08.92.18,1.41.29C448.14,792.34,452.8,793.12,455.55,800.24Z" transform="translate(-95.23 -55.03)" opacity="0.1"/>
      <path id="Path_720" data-name="Path 720" d="M411.55,647.54l-2.67,62.83s-4,12.83-1.83,16.5,5.83,7.33,4.5,9.5S394.22,762,389.05,753s-10.27-48-10.27-48l4.77-48.17Z" transform="translate(-95.23 -55.03)" fill="#444053"/>
      <path id="Path_721" data-name="Path 721" d="M423.13,491l7.42,9.92V587.2s2.17,23,0,27.75-13.17,14.25-13.17,14.25l-9.25-47.5,2-50.25Z" transform="translate(-95.23 -55.03)" fill="#313131"/>
      <path id="Path_722" data-name="Path 722" d="M411.55,647.54l-2.67,62.83s-4,12.83-1.83,16.5,5.83,7.33,4.5,9.5S394.22,762,389.05,753s-10.27-48-10.27-48l4.77-48.17Z" transform="translate(-95.23 -55.03)" opacity="0.1"/>
      <path id="Path_724" data-name="Path 724" d="M430.55,454.2v46.67l-8.33,36.33s-2.67,87.67-.34,98.33-8,20.67-8,20.67-6,.67-6,5.33-10,18-10,18l.33,26s4.34,48.67-2.33,58,2.33,10.67,2.33,10.67c-8.33,27.33-48.33,21-51.94,18s0-62,0-62,8.94-90,15.94-94,.34-9,2.67-15-2.33-22.33-2.33-22.33-2-19.34-7-28.67-4.34-35-4.34-35-14-18.67-18.16-26-6.84-26.33-5.84-40.67c.68-9.69,5.77-23.8,9-31.92,1.55-3.89,2.67-6.41,2.67-6.41l.95.25,54.62,14.3Z" transform="translate(-95.23 -55.03)" fill="#2b2a2e"/>
      <path id="Path_725" data-name="Path 725" d="M435.63,231.2c-5.16,1.48-10.09,6.56-14.38,12.73h-1.12a35.72,35.72,0,0,1-31-17.93,35.179,35.179,0,0,1-3.14-7.15c3.09-7.85,5.38-14.67,5.38-14.67S451.38,226.7,435.63,231.2Z" transform="translate(-95.23 -55.03)" opacity="0.1"/>
      <path id="Path_726" data-name="Path 726" d="M455.88,206.2A35.75,35.75,0,1,1,389,188.68a34.933,34.933,0,0,1,3.78-5.46A36.179,36.179,0,0,1,401,176a35.75,35.75,0,0,1,54.83,27.58C455.85,204.46,455.88,205.33,455.88,206.2Z" transform="translate(-95.23 -55.03)" fill="#efb7b9"/>
      <path id="Path_727" data-name="Path 727" d="M425.84,291.78l-.12,1.1-16.63-26c-1.74,4.11-2.71,6.86-2.71,6.86S366.88,244,373.13,242c2.1-.67,4.86-5.17,7.59-10.84l.34-.72c2.9,8.64,19.75,25.91,26.76,32.83.81.8,1.48,1.46,2,1.94l1.07,1,.56.56C414,269.4,424.76,281,425.84,291.78Z" transform="translate(-95.23 -55.03)" opacity="0.1"/>
      <path id="Path_728" data-name="Path 728" d="M438.27,380l-1.82,58.57L436.13,449s-21.56-2-41.68-4.2c-16.2-1.77-31.47-3.68-33.82-4.8-3-1.41-9.43-2.5-14.5-3.19-3.92-.53-7-.81-7-.81s-1.15.34-2.92.66c-3.86.7-10.64,1.27-14.59-2.16-5.05-4.39,8.22-20.34,11.53-24.17l.73-.83-1.25-11.55L329.38,368s-2-17.25-5-26.5a48.879,48.879,0,0,1-1.73-8.05,64.479,64.479,0,0,1,1.68-25.26,55.084,55.084,0,0,0,1.8-10.69c.5-9.25,28.75-45,35.75-48.25a14.84,14.84,0,0,0,7.16-7.14,13.639,13.639,0,0,0,1.09-3.11c3-13,10.59-7.84,10.59-7.84,1.83,10.17,30.16,37.09,30.16,37.09l.56.56c2.81,2.88,15.33,16.4,14.44,27.94a33.87,33.87,0,0,0,1.89,12.64,213.75,213.75,0,0,1,9.85,56Z" transform="translate(-95.23 -55.03)" fill="#dce6f2"/>
      <path id="Path_729" data-name="Path 729" d="M398.13,310.45s-7,17-12.25,19.75S400.63,336,398.13,310.45Z" transform="translate(-95.23 -55.03)" opacity="0.1"/>
      <path id="Path_730" data-name="Path 730" d="M403.38,342.2s-16,2-16,5S403.38,342.2,403.38,342.2Z" transform="translate(-95.23 -55.03)" opacity="0.1"/>
      <path id="Path_731" data-name="Path 731" d="M420.13,361.7s-23.25,49.5-29.75,51S420.13,361.7,420.13,361.7Z" transform="translate(-95.23 -55.03)" opacity="0.1"/>
      <path id="Path_732" data-name="Path 732" d="M410.44,270.76l-19.23,8.36L368,244.06a13.641,13.641,0,0,0,1.09-3.11c3-13,10.59-7.84,10.59-7.84,1.83,10.17,30.16,37.09,30.16,37.09Z" transform="translate(-95.23 -55.03)" opacity="0.1"/>
      <path id="Path_733" data-name="Path 733" d="M411.44,268.76l-19.23,8.36L369,242.06a13.64,13.64,0,0,0,1.09-3.11c3-13,10.59-7.84,10.59-7.84,1.83,10.17,30.16,37.09,30.16,37.09Z" transform="translate(-95.23 -55.03)" fill="#dce6f2"/>
      <path id="Path_734" data-name="Path 734" d="M436.13,449s-21.56-2-41.68-4.2l36.1,9.45v11c-1.58,1.43-2.95,2.17-3.84,1.79-4.16-1.75-38.11-7.25-38.11-7.25s-19.72-10-41-22a16.436,16.436,0,0,1-1.5-.94,23.64,23.64,0,0,1-6.3-6.31c-3.93-5.69-5.85-13-6.68-20.17a87.223,87.223,0,0,1-.52-12.38A101.506,101.506,0,0,1,333.88,384a460.052,460.052,0,0,1-3-54c.25-28,26.5-38,26.5-38,48.25-4.25,33.29,73.75,33.29,73.75s-2.79,22-3.55,24.25-3.49,6-3.12,11.25,9.59,11.53,9.59,11.53,9,4.22,12.71,10.47c2.7,4.61,20.24,10.86,30.15,15.32Z" transform="translate(-95.23 -55.03)" opacity="0.1"/>
      <path id="Path_735" data-name="Path 735" d="M452.29,184a11.32,11.32,0,0,1-1,4.78,29.552,29.552,0,0,1-1.78,3.56,16.4,16.4,0,0,1-4.38,5.44c-2.31,1.65-5.23,2.11-8,2.78s-5.65,1.74-7.23,4.1a14.34,14.34,0,0,0-1.69,4.9,10.54,10.54,0,0,1-2,4.74,3.93,3.93,0,0,1-4.68,1.12,4.73,4.73,0,0,1-1.81-2.33c-1.14-2.57-1.43-5.42-1.89-8.19s-1.11-5.62-2.81-7.85-4.71-3.7-7.38-2.83a7.11,7.11,0,0,0-4,3.88,22.24,22.24,0,0,0-1.51,5.52q-1.86,10.18-4.39,20.24a1.859,1.859,0,0,1-.33.76,1.44,1.44,0,0,1-1,.42c-2.24.3-4.39-1.27-6.65-1.1a3.821,3.821,0,0,0-.69.11,35.73,35.73,0,0,1,3.61-40.8l.18-.05a10.78,10.78,0,0,0,4-2.52,42.217,42.217,0,0,0,4-4.63l.8-1a45.61,45.61,0,0,1,7.8-7.41,8,8,0,0,1,2.66-1.44,7.88,7.88,0,0,1,2.52-.08,63.57,63.57,0,0,0,10.41.39,66.784,66.784,0,0,1,7.31-.74c6.33.18,11.73,4.65,15.73,9.55C450.24,177.83,452.16,180.72,452.29,184Z" transform="translate(-95.23 -55.03)" opacity="0.1"/>
      <path id="Path_736" data-name="Path 736" d="M384.33,189.63c-1.39,2.28-3.9,3.83-4.84,6.33-1.38,3.63.95,8.15-1.19,11.39-.71,1.09-1.88,1.9-2.28,3.15-.68,2.11,1.18,4.36.7,6.53s-3.34,4-2.58,6.12a4,4,0,0,0,2.2,2,8.6,8.6,0,0,0,5,1.11c2.73-.45,4.76-3.13,7.53-3.33,2.25-.16,4.4,1.4,6.64,1.11a1.5,1.5,0,0,0,1-.43,1.73,1.73,0,0,0,.33-.76q2.52-10.05,4.4-20.24a21.8,21.8,0,0,1,1.5-5.52,7.17,7.17,0,0,1,4-3.88c2.67-.86,5.67.6,7.38,2.83s2.36,5.08,2.82,7.85.75,5.62,1.88,8.19a4.78,4.78,0,0,0,1.82,2.34c1.5.87,3.52.18,4.67-1.12a10.43,10.43,0,0,0,2-4.75,14.281,14.281,0,0,1,1.69-4.89c1.58-2.36,4.47-3.43,7.23-4.1s5.67-1.14,8-2.79a16.459,16.459,0,0,0,4.38-5.43c1.48-2.58,2.86-5.38,2.74-8.35-.13-3.24-2.05-6.13-4.1-8.65-4-4.9-9.41-9.37-15.74-9.54a62.2,62.2,0,0,0-7.31.74,62.571,62.571,0,0,1-10.41-.4,8.18,8.18,0,0,0-2.52.09,7.54,7.54,0,0,0-2.65,1.44,45.63,45.63,0,0,0-7.81,7.4,57.313,57.313,0,0,1-4.82,5.6,10.85,10.85,0,0,1-4,2.53c-1,.28-2,.08-2.95.39C386.09,183.52,385.7,187.37,384.33,189.63Z" transform="translate(-95.23 -55.03)" fill="#121212"/>
      <path id="Path_737" data-name="Path 737" d="M480.63,216.82c-8,1.47-14.63-5-18.3-9.72a39.216,39.216,0,0,1-3.07-4.52l27.46,5.18,1.11.21S492.88,214.58,480.63,216.82Z" transform="translate(-95.23 -55.03)" opacity="0.1"/>
      <g id="Group_155" data-name="Group 155" opacity="0.1">
        <path id="Path_738" data-name="Path 738" d="M376.72,214.17a8.329,8.329,0,0,0-.58-3.84c0,.1-.09.2-.12.3-.43,1.34.15,2.73.52,4.12A3,3,0,0,0,376.72,214.17Z" transform="translate(-95.23 -55.03)"/>
        <path id="Path_739" data-name="Path 739" d="M379.1,197.8a22.22,22.22,0,0,0,.08,4.15,22.281,22.281,0,0,0-.08-4.15Z" transform="translate(-95.23 -55.03)"/>
        <path id="Path_740" data-name="Path 740" d="M448.55,188.45a16.4,16.4,0,0,1-4.38,5.44c-2.31,1.65-5.22,2.11-8,2.78s-5.65,1.74-7.23,4.1a14.408,14.408,0,0,0-1.69,4.9,10.47,10.47,0,0,1-2,4.75c-1.15,1.3-3.17,2-4.67,1.12a4.78,4.78,0,0,1-1.82-2.34c-1.13-2.57-1.43-5.41-1.88-8.19s-1.12-5.62-2.82-7.85-4.71-3.7-7.38-2.83a7.14,7.14,0,0,0-4,3.88,21.8,21.8,0,0,0-1.5,5.52q-1.87,10.19-4.4,20.24a1.73,1.73,0,0,1-.33.76,1.5,1.5,0,0,1-1,.43c-2.24.29-4.39-1.27-6.64-1.11-2.77.2-4.8,2.88-7.53,3.32a8.45,8.45,0,0,1-5-1.11,5.35,5.35,0,0,1-1.83-1.3,2.7,2.7,0,0,0-.37,2.33,3.9,3.9,0,0,0,2.2,2,8.45,8.45,0,0,0,5,1.11c2.73-.44,4.76-3.12,7.53-3.32,2.25-.16,4.4,1.4,6.64,1.11a1.5,1.5,0,0,0,1-.43,1.73,1.73,0,0,0,.33-.76q2.52-10,4.4-20.24a21.8,21.8,0,0,1,1.5-5.52,7.14,7.14,0,0,1,4-3.88c2.67-.87,5.67.6,7.38,2.83s2.36,5.08,2.82,7.85.75,5.62,1.88,8.19a4.78,4.78,0,0,0,1.82,2.34c1.5.87,3.52.18,4.67-1.12a10.47,10.47,0,0,0,2-4.75,14.409,14.409,0,0,1,1.69-4.9c1.58-2.36,4.47-3.42,7.23-4.1s5.67-1.13,8-2.78a16.4,16.4,0,0,0,4.38-5.44c1.48-2.57,2.86-5.37,2.74-8.34a10.739,10.739,0,0,0-.12-1.14,19.65,19.65,0,0,1-2.62,6.45Z" transform="translate(-95.23 -55.03)"/>
      </g>
      <path id="Path_741" data-name="Path 741" d="M451.33,188.75a35.33,35.33,0,0,1,4.45,14.85c-8.91-5-17.29-10.49-21.52-12.4-7.37-3.33-34.93-2.83-45.29-2.52a34.93,34.93,0,0,1,3.78-5.46A36.18,36.18,0,0,1,401,176a35.77,35.77,0,0,1,50.38,12.73Z" transform="translate(-95.23 -55.03)" opacity="0.1"/>
      <path id="Path_742" data-name="Path 742" d="M483.13,212.58c-4.81,1.48-12.66-1.38-20.8-5.48a39.216,39.216,0,0,1-3.07-4.52l27.46,5.18C488.54,209,489,210.77,483.13,212.58Z" transform="translate(-95.23 -55.03)" opacity="0.1"/>
      <path id="Path_743" data-name="Path 743" d="M422.26,154.08s-26.25-1.5-33.63,12.75l-1.19,12.63-2-.22-.4,8.59s40.12-1.75,49.25,2.37,37.5,24.88,48.87,21.38-1-6.75-1-6.75S466.51,198.2,466.51,193,462.63,160.33,422.26,154.08Z" transform="translate(-95.23 -55.03)" fill="#444053"/>
      <path id="Path_744" data-name="Path 744" d="M371.63,622.28s16.75,16.25,24,15C395.63,637.28,375.13,635.53,371.63,622.28Z" transform="translate(-95.23 -55.03)" opacity="0.1"/>
      <path id="Path_745" data-name="Path 745" d="M368.13,629.81s1.5,8.36,5.5,7.54S368.13,629.81,368.13,629.81Z" transform="translate(-95.23 -55.03)" opacity="0.1"/>
      <path id="Path_746" data-name="Path 746" d="M394.38,769.53s-23.78,18.5-19.77,19S394.38,769.53,394.38,769.53Z" transform="translate(-95.23 -55.03)" opacity="0.1"/>
      <path id="Path_747" data-name="Path 747" d="M330.96,347.33l77-12.53v72.9l-73.16-3.83Z" fill="#ff6363"/>
      <path id="Path_748" data-name="Path 748" d="M330.96,347.33l77-12.53v72.9l-73.16-3.83Z" transform="translate(0 0.367)" opacity="0.05"/>
      <path id="Path_749" data-name="Path 749" d="M407.96,334.8l92.34,6.91-5.11,63.44-87.23,2.55Z" fill="#ff6363"/>
      <path id="Path_750" data-name="Path 750" d="M407.96,334.8l92.34,6.91-5.11,63.44-87.23,2.55Z" transform="translate(-1.007 0.367)" opacity="0.1"/>
      <path id="Path_751" data-name="Path 751" d="M436.35,312.55,407.96,334.8l92.34,6.91,15.09-22.77Z" fill="#ff6363"/>
      <path id="Path_752" data-name="Path 752" d="M303.08,323.03l69.32-8.44,35.56,20.21-77,12.53Z" fill="#ff6363"/>
      <path id="Path_753" data-name="Path 753" d="M424.84,353.73V453.4l-36.07-3.7-15.69-1.6-4.78-.5-15.68-1.61-21.66-2.22V347.33l76.99,5.24Z" fill="#ff6363"/>
      <path id="Path_754" data-name="Path 754" d="M500.3,341.71v97.2l-28.91,5.55-14.06,2.7-32.49,6.24V353.73Z" fill="#ff6363"/>
      <path id="Path_755" data-name="Path 755" d="M500.3,341.71v97.2l-28.91,5.55-14.06,2.7-32.49,6.24V353.73Z" transform="translate(0)" opacity="0.05"/>
      <path id="Path_756" data-name="Path 756" d="M303.08,368.31l27.88-20.98,93.88,6.4-13.82,23.28Z" fill="#ff6363"/>
      <path id="Path_757" data-name="Path 757" d="M303.08,368.31l27.88-20.98,93.88,6.4-13.82,23.28Z" transform="translate(0.037 0)" fill="#fff" opacity="0.1"/>
      <path id="Path_758" data-name="Path 758" d="M500.3,341.71l-75.46,12.02,24.56,22,80.83-13.56Z" fill="#ff6363"/>
      <path id="Path_759" data-name="Path 759" d="M500.3,341.71l-75.46,12.02,24.56,22,80.83-13.56Z" transform="translate(0.138)" fill="#ff6363" opacity="0.1"/>
      <path id="Path_760" data-name="Path 760" d="M471.39,444.46l-14.06,2.7V426.39l13.17-3.32Z" fill="#fff" opacity="0.1"/>
      <path id="Path_761" data-name="Path 761" d="M388.77,435.96V449.7l-15.69-1.6V435.96Z" fill="#fff" opacity="0.1"/>
      <path id="Path_762" data-name="Path 762" d="M368.3,440.29v7.31l-15.68-1.61v-5.7Z" fill="#fff" opacity="0.1"/>
      <path id="Path_763" data-name="Path 763" d="M510.63,483.7c-10.75,13.75-46.25,4.25-46.25,4.25L438,460.43l-3.58-3.73,7-13s2,.66,5.34,1.82C464.44,451.7,519.68,472.13,510.63,483.7Z" transform="translate(-95.23 -55.03)" opacity="0.1"/>
      <path id="Path_764" data-name="Path 764" d="M509.63,481.7c-10.75,13.75-46.25,4.25-46.25,4.25L437,458.43l-3.58-3.73,7-13s2,.66,5.34,1.82C463.44,449.7,518.68,470.13,509.63,481.7Z" transform="translate(-95.23 -55.03)" fill="#efb7b9"/>
      <path id="Path_765" data-name="Path 765" d="M445.72,443.52c-1.46,4.2-5.17,10.42-8.76,14.91l-3.58-3.73,7-13S442.39,442.36,445.72,443.52Z" transform="translate(-95.23 -55.03)" opacity="0.1"/>
      <path id="Path_766" data-name="Path 766" d="M358.38,288s-26.25,10-26.5,38a460.082,460.082,0,0,0,3,54s-7.5,41.75,13.75,53.75,41,22,41,22,33.95,5.5,38.12,7.25,18.66-20.75,16.41-24.5-33.16-13-36.83-19.25-12.71-10.46-12.71-10.46-9.22-6.29-9.59-11.54,2.35-9,3.12-11.25,3.56-24.25,3.56-24.25S406.63,283.7,358.38,288Z" transform="translate(-95.23 -55.03)" fill="#dce6f2"/>
      <path id="Path_767" data-name="Path 767" d="M370.38,380.7s-35.5,4-32.75,16.5C337.63,397.2,351.12,384.59,370.38,380.7Z" transform="translate(-95.23 -55.03)" opacity="0.1"/>
      <path id="Path_768" data-name="Path 768" d="M370.38,385.7s-20.15,14.75-16.45,15.75S370.38,385.7,370.38,385.7Z" transform="translate(-95.23 -55.03)" opacity="0.1"/>
      <path id="Path_769" data-name="Path 769" d="M379.38,391.7s-5.75,10.34-2.5,9.8S379.38,391.7,379.38,391.7Z" transform="translate(-95.23 -55.03)" opacity="0.1"/>
    </g>
    <g id="Group_161" data-name="Group 161" transform="translate(965.975 -435.601) rotate(14)">
      <g id="Group_158" data-name="Group 158" transform="translate(2734.202 4113.111)">
        <path id="Path_801" data-name="Path 801" d="M498.113,220.37a26.036,26.036,0,0,0-25.773,25.586c0,.13,0,1.043,0,2.236a6.6,6.6,0,0,0,6.6,6.6h0a6.6,6.6,0,0,0,6.6-6.609c0-.814,0-1.376,0-1.41a12.517,12.517,0,1,1,19.269,10.538l0,0s-9.394,6.047-12.257,14.343h0a18.386,18.386,0,0,0-.758,5.235c0,.729.043,7.1.126,12.278a6.8,6.8,0,0,0,6.8,6.693h0a6.805,6.805,0,0,0,6.805-6.847c-.029-4.739-.044-10.257-.044-10.657,0-5.094,4.914-10.169,8.951-13.479a27.148,27.148,0,0,0,9.337-14.864,16.967,16.967,0,0,0,.489-3.684,25.964,25.964,0,0,0-26.151-25.963Z" transform="translate(-472.245 -220.369)" fill="#7b7b7b"/>
        <path id="Path_802" data-name="Path 802" d="M480.42,295.872h0a6.6,6.6,0,0,1-6.6-6.6c0-1.195,0-2.107,0-2.237a25.721,25.721,0,0,1,3-11.717,25.779,25.779,0,0,0-4.96,14.847c0,.13,0,1.043,0,2.236a6.6,6.6,0,0,0,6.6,6.6h0a6.605,6.605,0,0,0,6.354-4.81A6.576,6.576,0,0,1,480.42,295.872Z" transform="translate(-471.865 -264.571)" fill="#3f3d56"/>
        <path id="Path_803" data-name="Path 803" d="M564.773,278.549a12.518,12.518,0,0,1,10.886,17.488,12.517,12.517,0,1,0-21.011-13.1A12.492,12.492,0,0,1,564.773,278.549Z" transform="translate(-538.457 -264.641)" fill="#3f3d56"/>
        <path id="Path_804" data-name="Path 804" d="M580.25,480.627h0a6.8,6.8,0,0,1-6.8-6.695c-.083-5.173-.126-11.548-.126-12.277a18.387,18.387,0,0,1,.758-5.235h0a18.574,18.574,0,0,1,1.075-2.484,21.52,21.52,0,0,0-3.03,5.613h0a18.386,18.386,0,0,0-.758,5.235c0,.729.043,7.1.126,12.278a6.8,6.8,0,0,0,6.8,6.693h0a6.807,6.807,0,0,0,6.533-4.9A6.779,6.779,0,0,1,580.25,480.627Z" transform="translate(-551.904 -408.254)" fill="#3f3d56"/>
      </g>
      <g id="Group_160" data-name="Group 160" transform="translate(2751.208 4191.932)">
        <circle id="Ellipse_160" data-name="Ellipse 160" cx="8.997" cy="8.997" r="8.997" transform="translate(0.016 0)" fill="#7b7b7b"/>
        <path id="Path_800" data-name="Path 800" d="M570.006,677.642a9,9,0,0,1-3.339-13.982,9,9,0,1,0,12.237,13A8.991,8.991,0,0,1,570.006,677.642Z" transform="translate(-562.975 -661.843)" fill="#3f3d56"/>
      </g>
    </g>
    <g id="Group_162" data-name="Group 162" transform="translate(-812.103 542.186) rotate(-8)">
      <g id="Group_158-2" data-name="Group 158" transform="translate(2734.202 4113.111)">
        <path id="Path_801-2" data-name="Path 801" d="M498.113,220.37a26.036,26.036,0,0,0-25.773,25.586c0,.13,0,1.043,0,2.236a6.6,6.6,0,0,0,6.6,6.6h0a6.6,6.6,0,0,0,6.6-6.609c0-.814,0-1.376,0-1.41a12.517,12.517,0,1,1,19.269,10.538l0,0s-9.394,6.047-12.257,14.343h0a18.386,18.386,0,0,0-.758,5.235c0,.729.043,7.1.126,12.278a6.8,6.8,0,0,0,6.8,6.693h0a6.805,6.805,0,0,0,6.805-6.847c-.029-4.739-.044-10.257-.044-10.657,0-5.094,4.914-10.169,8.951-13.479a27.148,27.148,0,0,0,9.337-14.864,16.967,16.967,0,0,0,.489-3.684,25.964,25.964,0,0,0-26.151-25.963Z" transform="translate(-472.245 -220.369)" fill="#7b7b7b"/>
        <path id="Path_802-2" data-name="Path 802" d="M480.42,295.872h0a6.6,6.6,0,0,1-6.6-6.6c0-1.195,0-2.107,0-2.237a25.721,25.721,0,0,1,3-11.717,25.779,25.779,0,0,0-4.96,14.847c0,.13,0,1.043,0,2.236a6.6,6.6,0,0,0,6.6,6.6h0a6.605,6.605,0,0,0,6.354-4.81A6.576,6.576,0,0,1,480.42,295.872Z" transform="translate(-471.865 -264.571)" fill="#3f3d56"/>
        <path id="Path_803-2" data-name="Path 803" d="M564.773,278.549a12.518,12.518,0,0,1,10.886,17.488,12.517,12.517,0,1,0-21.011-13.1A12.492,12.492,0,0,1,564.773,278.549Z" transform="translate(-538.457 -264.641)" fill="#3f3d56"/>
        <path id="Path_804-2" data-name="Path 804" d="M580.25,480.627h0a6.8,6.8,0,0,1-6.8-6.695c-.083-5.173-.126-11.548-.126-12.277a18.387,18.387,0,0,1,.758-5.235h0a18.574,18.574,0,0,1,1.075-2.484,21.52,21.52,0,0,0-3.03,5.613h0a18.386,18.386,0,0,0-.758,5.235c0,.729.043,7.1.126,12.278a6.8,6.8,0,0,0,6.8,6.693h0a6.807,6.807,0,0,0,6.533-4.9A6.779,6.779,0,0,1,580.25,480.627Z" transform="translate(-551.904 -408.254)" fill="#3f3d56"/>
      </g>
      <g id="Group_160-2" data-name="Group 160" transform="translate(2751.208 4191.932)">
        <circle id="Ellipse_160-2" data-name="Ellipse 160" cx="8.997" cy="8.997" r="8.997" transform="translate(0.016 0)" fill="#7b7b7b"/>
        <path id="Path_800-2" data-name="Path 800" d="M570.006,677.642a9,9,0,0,1-3.339-13.982,9,9,0,1,0,12.237,13A8.991,8.991,0,0,1,570.006,677.642Z" transform="translate(-562.975 -661.843)" fill="#3f3d56"/>
      </g>
    </g>
  </g>
</svg>
