<svg xmlns="http://www.w3.org/2000/svg" width="241.201" height="131.723" viewBox="0 0 241.201 131.723">
  <g id="Group_4" data-name="Group 4" transform="translate(0)">
    <path id="Path_1" data-name="Path 1" d="M224.367,643.731q33.764-.4,67.526.457a22.3,22.3,0,0,1,5.655.625c1.71.513,3.026,1.613,2.558,2.67q-13.179.39-26.386.241c-1.917.939-4.022,2.354-2.844,3.62.815.876,2.828,1.137,4.588,1.139,3.188,0,6.389-.52,9.53-.213s6.275,1.959,5.355,3.674c-.7,1.3-3.349,1.947-5.762,2.062s-4.882-.124-7.24.184a52.494,52.494,0,0,0-6.279,1.586,58.4,58.4,0,0,1-10.583,1.318c-27.7,1.692-55.635,1.679-83.5,1.664-11.281-.006-22.716-.023-33.61-1.67-6.21-.939-12.16-2.4-18.448-3.153-7.511-.9-15.274-.781-22.955-.754q-20.227.071-40.419-.78c-1-.042-2.231-.185-2.5-.729-.316-.634.965-1.129,2.047-1.383a118.868,118.868,0,0,1,18.649-2.782,55.335,55.335,0,0,0,9.384-1.074c2.925-.736,5.481-2.28,5.454-4.081-.008-.549-.24-1.137.218-1.622.609-.644,2.107-.792,3.4-.862,14.327-.779,28.732-1.1,43.124-.973,5.063.046,10.146.148,15.173-.193,4.119-.279,8.153-.853,12.212-1.335,5.449-.646,29.161-4,32.62-1.278,2.589,2.034-2.757,2.473,4.188,3.3C211.564,644.115,218.234,643.8,224.367,643.731Z" transform="translate(-59 -531.038)" fill="#f2f2f2"/>
    <path id="Path_2" data-name="Path 2" d="M393.4,571s-8.347,16.517-1.243,16.517,96.617.355,99.1-4.263c1.742-3.235.782-14.752.05-21.359a5.051,5.051,0,0,0-5.3-4.488c-19.359,1.068-91.682,5.028-91.367,4.534.622-.977.178-.71.178-.71S391.978,570.286,393.4,571Z" transform="translate(-315.662 -467.594)" fill="#3f3d56"/>
    <path id="Path_3" data-name="Path 3" d="M506.75,561.892a5.051,5.051,0,0,0-5.3-4.488c-19.359,1.069-91.682,5.028-91.367,4.534.622-.977.178-.71.178-.71s-.634,2.022-1.154,4.23c.074-.007.129.062-.111.484q-.032.143-.063.286c2.9.286,72.361-3.517,91.274-4.561a5.051,5.051,0,0,1,5.3,4.488c.544,4.912,1.214,12.537.806,17.456a1.062,1.062,0,0,0,.387-.36C508.441,580.016,507.481,568.5,506.75,561.892Z" transform="translate(-330.924 -467.594)" opacity="0.1"/>
    <path id="Path_4" data-name="Path 4" d="M388.516,468.08c-.925-.284-2.1-.65-1.991-1.247.056-.317.481-.565.788-.831.593-.513.753-1.235.116-1.73a2.636,2.636,0,0,0-2.733-.037c-.289.27-.272.608-.421.912-.466.95-2.349,1.367-3.95,1.736s-3.391,1.056-3.24,2.038c.164,1.072,2.633,2.023,1.639,2.937-.36.331-1.118.516-1.279.9-.113.267.114.538.336.782l1.572,1.732c.625.689,1.27,1.439,1.06,2.206-.415,1.52-3.79,2.1-6.465,1.931a5.35,5.35,0,0,0-2.8.263.918.918,0,0,0-.345,1.234c.444,1.089,1.864,2.031,3.681,2.444-2.037.4-2.836,2.1-1.43,3.029a4.184,4.184,0,0,1-2.494.071c-.7.64-.287,1.519.6,2.079a11.826,11.826,0,0,0,3.342,1.174l-1.132,1.059c.819.64,2.589.414,3.782.01a8.119,8.119,0,0,1,3.825-.736c1.254.2,2.2,1.035,3.479.892a2.244,2.244,0,0,0,1.769-1.3l1.31-2.333c1.865.292,3.827-.986,3.078-2.006,2.087.224,4.142-1.131,3.457-2.281a6.681,6.681,0,0,1,2.277,2.9,2.768,2.768,0,0,0,.741,1.356,2.463,2.463,0,0,0,2.154.39c-.381.738-.689,1.6.093,2.225s3.039.449,2.94-.319a10.852,10.852,0,0,0,4.02,1.033c1.491.038,3.122-.529,3.258-1.379a20.826,20.826,0,0,0,6.511,1.048c.188-.568,1.5-.752,2.485-.613a20.473,20.473,0,0,0,2.906.473c1.012,0,2.1-.609,1.582-1.106a20.919,20.919,0,0,0,6.484.327c2.043-.217,3.978-.732,6.047-.843a14.442,14.442,0,0,1,6.156.972,3.559,3.559,0,0,0,2.266.419,2.7,2.7,0,0,0,.915-.617c1.236-.937,3.762-.758,5.711-.389s4.216.812,5.924.161c.644-.246,1.119-.626,1.8-.832,2.455-.739,5.394,1.155,8,.61a15.86,15.86,0,0,1,2.436-.654c1.595-.093,2.648.988,4.2,1.22,1.609.241,3.353-.738,2.96-1.662a14.44,14.44,0,0,0,4.566-.635l-.73-1.314c1.82-.029,3.159-1.334,2.315-2.256,1.825-.348,3.268-1.283,3.643-2.361s-.332-2.258-1.786-2.979a8.358,8.358,0,0,1-2.475-1.309c-.353-.422-.3-.912-.439-1.373-.3-1.008-1.6-1.9-3.287-2.246a17.746,17.746,0,0,1-2.193-.441c-.662-.233-1.14-.737-.758-1.124a7.75,7.75,0,0,1,.843-.511c1.021-.754-.73-1.708-2.224-2.132l3.569-.117.766-3.475c-1.412,1.148-5.075.907-5.992-.4a3.384,3.384,0,0,0,3.245-.789,2.5,2.5,0,0,0,.273-2.231,1.083,1.083,0,0,0-.595-.886c-.349-.166-.906-.236-1.02-.487s.335-.484.4-.746c.129-.5-1.029-.726-1.811-.969-1.845-.575-2.738-2.19-4.838-2.138a2.609,2.609,0,0,0-2.667,2.834,2.625,2.625,0,0,1-2.791,2.764,5.714,5.714,0,0,1-2.223-.595l-5.97-2.575a14.29,14.29,0,0,0-2.452-.879,19.115,19.115,0,0,0-3.834-.344l-8.352-.19a3.891,3.891,0,0,0-1.267.109,2.372,2.372,0,0,0-.916.683c-1.163,1.092-3.9,1.52-5.87.918-.523-.159-.992-.379-1.546-.5-1.746-.378-3.579.322-5.393.575-2.974.415-6.67-.3-8.815.95-.715.417-1.094.986-1.757,1.43a3.256,3.256,0,0,1-2.693.41,3.146,3.146,0,0,1-.351,2.418A3.8,3.8,0,0,1,407.151,466c-.737-.2-.679-.815-.331-1.234s.884-.848.71-1.3-.962-.712-1.552-1.026-.984-.908-.357-1.2c-.422-.543-1.941-.477-2.609-.021a2.067,2.067,0,0,0-.808,1.689,1.882,1.882,0,0,1-1.006,1.639c-1.319.676-3.851.325-4.726,1.206-.278.28-.294.617-.453.926-.71,1.378-3.773,1.734-6.277,1.847a3.074,3.074,0,0,0-.035.869C390.564,469.025,389.137,468.271,388.516,468.08Z" transform="translate(-300.83 -389.432)" fill="#61ab43"/>
    <path id="Path_5" data-name="Path 5" d="M839.57,496.637a2.5,2.5,0,0,1-.273,2.231,1.71,1.71,0,0,1-.281.266l2.262-.074.766-3.475a4.364,4.364,0,0,1-2.559.734,2.235,2.235,0,0,1,.084.318Z" transform="translate(-665.134 -419.562)" opacity="0.1"/>
    <path id="Path_6" data-name="Path 6" d="M829.9,514.177c-.089-.47-.864-.946-1.731-1.287a3.524,3.524,0,0,1-2.446.215C826.352,514,828.291,514.4,829.9,514.177Z" transform="translate(-654.801 -433.009)" opacity="0.1"/>
    <path id="Path_7" data-name="Path 7" d="M836.781,530.021l-.059.266-3.569.117c1.495.423,3.245,1.378,2.224,2.131a7.761,7.761,0,0,0-.843.511c-.382.387.1.891.758,1.124a17.746,17.746,0,0,0,2.193.441c1.683.347,2.986,1.238,3.287,2.246.137.461.086.951.439,1.373a8.359,8.359,0,0,0,2.475,1.309c.083.041.162.084.24.128a3.242,3.242,0,0,0,1.546-1.617c.375-1.079-.332-2.258-1.786-2.979a8.358,8.358,0,0,1-2.475-1.309c-.353-.421-.3-.912-.439-1.373-.3-1.008-1.6-1.9-3.287-2.246C837.255,530.1,837.018,530.059,836.781,530.021Z" transform="translate(-660.578 -446.321)" opacity="0.1"/>
    <path id="Path_8" data-name="Path 8" d="M372.472,592.439a2.72,2.72,0,0,1,2.007-1.318,6.792,6.792,0,0,1-2.689-1.213,4.06,4.06,0,0,1-1.235-.154c-.7.64-.287,1.519.6,2.079a6.407,6.407,0,0,0,1.321.607Z" transform="translate(-300.83 -492.738)" opacity="0.1"/>
    <path id="Path_9" data-name="Path 9" d="M402.724,471.815a11.874,11.874,0,0,1,1.558-.464c1.6-.369,3.484-.786,3.95-1.736.149-.3.132-.643.421-.912a2.635,2.635,0,0,1,2.733.037c.637.5.477,1.217-.116,1.73-.308.266-.732.514-.788.831-.106.6,1.066.963,1.991,1.247a3.938,3.938,0,0,1,1.205.636c.008-.063.015-.127.021-.189,2.5-.112,5.568-.469,6.277-1.847.159-.309.175-.646.453-.926.875-.881,3.407-.53,4.726-1.206a1.883,1.883,0,0,0,1.006-1.639,2.067,2.067,0,0,1,.807-1.689c.668-.455,2.187-.521,2.609.021-.627.29-.233.884.357,1.2s1.38.576,1.552,1.026-.361.882-.71,1.3-.407,1.039.331,1.234a3.8,3.8,0,0,0,3.355-1.178,3.146,3.146,0,0,0,.351-2.418,3.256,3.256,0,0,0,2.693-.41c.662-.444,1.042-1.013,1.757-1.43,2.144-1.249,5.84-.535,8.815-.95,1.814-.253,3.647-.953,5.393-.575.554.12,1.023.34,1.546.5,1.973.6,4.708.174,5.871-.918a2.373,2.373,0,0,1,.916-.683,3.889,3.889,0,0,1,1.267-.109l8.352.19a19.121,19.121,0,0,1,3.834.344,14.3,14.3,0,0,1,2.452.879l5.97,2.575a5.712,5.712,0,0,0,2.223.595,2.625,2.625,0,0,0,2.791-2.764,2.609,2.609,0,0,1,2.667-2.834c2.1-.052,2.993,1.563,4.838,2.138.782.244,1.94.466,1.811.969-.06.234-.424.439-.42.663a2.748,2.748,0,0,0,1.36-.78,2.5,2.5,0,0,0,.273-2.231,1.083,1.083,0,0,0-.595-.886c-.349-.166-.906-.236-1.021-.487s.335-.484.4-.746c.129-.5-1.029-.726-1.811-.969-1.845-.575-2.738-2.19-4.838-2.138a2.609,2.609,0,0,0-2.667,2.834,2.625,2.625,0,0,1-2.791,2.764,5.712,5.712,0,0,1-2.223-.595l-5.97-2.575a14.3,14.3,0,0,0-2.452-.879,19.117,19.117,0,0,0-3.834-.344l-8.352-.19a3.887,3.887,0,0,0-1.267.109,2.372,2.372,0,0,0-.916.683c-1.163,1.092-3.9,1.52-5.871.918-.523-.159-.992-.379-1.546-.5-1.746-.378-3.579.322-5.393.575-2.974.415-6.67-.3-8.815.95-.715.417-1.094.986-1.757,1.43a3.256,3.256,0,0,1-2.693.41,3.146,3.146,0,0,1-.351,2.418A3.8,3.8,0,0,1,431.108,466c-.737-.195-.679-.815-.331-1.234s.884-.848.71-1.3-.962-.712-1.552-1.026-.984-.908-.357-1.2c-.422-.543-1.941-.477-2.609-.021a2.067,2.067,0,0,0-.807,1.689,1.883,1.883,0,0,1-1.006,1.639c-1.319.676-3.851.325-4.726,1.206-.278.28-.294.617-.453.926-.71,1.378-3.773,1.734-6.277,1.847-.006.063-.014.126-.022.189a3.935,3.935,0,0,0-1.2-.636c-.925-.284-2.1-.65-1.991-1.247.056-.317.481-.565.788-.831.593-.513.753-1.235.116-1.73a2.636,2.636,0,0,0-2.733-.037c-.289.27-.272.608-.421.912-.466.95-2.349,1.367-3.95,1.736s-3.391,1.056-3.24,2.038C401.2,469.977,403.594,470.914,402.724,471.815Z" transform="translate(-324.786 -389.432)" opacity="0.1"/>
    <path id="Path_10" data-name="Path 10" d="M376.193,560.361a3.509,3.509,0,0,0-1.239.485c.24.01.478.026.708.041,2.675.171,6.05-.411,6.465-1.931.21-.767-.435-1.517-1.06-2.206l-.754-.831a12.961,12.961,0,0,1-4.651.5,5.35,5.35,0,0,0-2.8.263.918.918,0,0,0-.345,1.234C372.956,559.006,374.376,559.949,376.193,560.361Z" transform="translate(-302.543 -466.446)" opacity="0.1"/>
    <ellipse id="Ellipse_1" data-name="Ellipse 1" cx="26.641" cy="17.583" rx="26.641" ry="17.583" transform="translate(101.492 51.798)" fill="#ea565c"/>
    <path id="Path_11" data-name="Path 11" d="M561.159,425.752s-12.077,1.243-8.525-3.907,7.992-6.927,10.123-5.506,3.019,5.328,2.664,5.328-5.506-3.019-7.282-.71S561.159,425.752,561.159,425.752Z" transform="translate(-442.084 -357.615)" fill="#fff" opacity="0.2"/>
    <path id="Path_12" data-name="Path 12" d="M613.965,462.467s9.973,6.924,3.923,8.518-10.576.049-11.267-2.417,1.18-6.009,1.449-5.778,2.211,5.877,5.062,5.282S613.965,462.467,613.965,462.467Z" transform="translate(-484.426 -393.826)" fill="#fff" opacity="0.2"/>
    <path id="Path_13" data-name="Path 13" d="M650.543,412.67s.787-12.115,5.273-7.755,5.5,9.035,3.741,10.9-5.757,2.089-5.7,1.739,3.895-4.926,1.914-7.062S650.543,412.67,650.543,412.67Z" transform="translate(-518.675 -348.368)" fill="#fff" opacity="0.2"/>
    <ellipse id="Ellipse_2" data-name="Ellipse 2" cx="26.641" cy="17.583" rx="26.641" ry="17.583" transform="translate(69.345 50.377)" fill="#ea565c"/>
    <path id="Path_14" data-name="Path 14" d="M416.954,419.378s-12.077,1.243-8.525-3.907,7.992-6.927,10.124-5.506,3.019,5.328,2.664,5.328-5.506-3.019-7.282-.71S416.954,419.378,416.954,419.378Z" transform="translate(-330.025 -352.662)" fill="#fff" opacity="0.2"/>
    <path id="Path_15" data-name="Path 15" d="M469.76,456.093s9.973,6.924,3.923,8.518-10.576.049-11.267-2.417,1.18-6.009,1.45-5.778,2.211,5.877,5.062,5.282S469.76,456.093,469.76,456.093Z" transform="translate(-372.367 -388.874)" fill="#fff" opacity="0.2"/>
    <path id="Path_16" data-name="Path 16" d="M506.337,406.3s.787-12.115,5.273-7.755,5.5,9.035,3.741,10.9-5.757,2.089-5.7,1.739,3.895-4.926,1.914-7.062S506.337,406.3,506.337,406.3Z" transform="translate(-406.616 -343.415)" fill="#fff" opacity="0.2"/>
    <path id="Path_17" data-name="Path 17" d="M443.975,392.286c5.8,3.225,9.491,8.055,9.491,13.454,0,9.711-11.927,17.583-26.641,17.583a37.344,37.344,0,0,1-13.775-2.53,35.632,35.632,0,0,0,17.15,4.129c14.713,0,26.641-7.872,26.641-17.583C456.84,400.956,451.686,395.367,443.975,392.286Z" transform="translate(-334.124 -339.291)" opacity="0.1"/>
    <path id="Path_18" data-name="Path 18" d="M588.18,397.863c5.8,3.225,9.491,8.055,9.491,13.454,0,9.711-11.927,17.583-26.641,17.583a37.344,37.344,0,0,1-13.775-2.53A35.632,35.632,0,0,0,574.4,430.5c14.713,0,26.641-7.872,26.641-17.583C601.045,406.533,595.891,400.944,588.18,397.863Z" transform="translate(-446.183 -343.624)" opacity="0.1"/>
    <path id="Path_19" data-name="Path 19" d="M408.409,385.61s22.911-24.509,79.034-14.386c44.366,8,7.934,21.777-9.277,27.2a61.84,61.84,0,0,1-15.395,2.772C443.354,402.192,394.514,403.086,408.409,385.61Z" transform="translate(-328.613 -321.019)" fill="#714b4f"/>
    <path id="Path_20" data-name="Path 20" d="M478.171,426.552a61.834,61.834,0,0,1-15.395,2.772c-15.73.81-50.767,1.55-56.121-7.489-6.759,14.61,37.79,13.761,56.121,12.817a61.838,61.838,0,0,0,15.395-2.772c12.616-3.973,35.556-12.434,29.437-19.82C503.488,417.857,487.814,423.515,478.171,426.552Z" transform="translate(-328.618 -354.656)" opacity="0.1"/>
    <line id="Line_1" data-name="Line 1" x2="6.216" y2="12.255" transform="translate(128.726 50.294)" fill="none" stroke="#000" stroke-miterlimit="10" stroke-width="2" opacity="0.1"/>
    <line id="Line_2" data-name="Line 2" x2="5.328" y2="10.301" transform="translate(109.545 54.734)" fill="none" stroke="#000" stroke-miterlimit="10" stroke-width="2" opacity="0.1"/>
    <line id="Line_3" data-name="Line 3" x2="8.347" y2="12.255" transform="translate(139.915 50.294)" fill="none" stroke="#000" stroke-miterlimit="10" stroke-width="2" opacity="0.1"/>
    <line id="Line_4" data-name="Line 4" y1="7.104" x2="55.946" transform="translate(109.545 58.997)" fill="none" stroke="#000" stroke-miterlimit="10" stroke-width="2" opacity="0.1"/>
    <line id="Line_5" data-name="Line 5" x2="3.907" y2="5.506" transform="translate(163.359 52.603)" fill="none" stroke="#000" stroke-miterlimit="10" stroke-width="2" opacity="0.1"/>
    <line id="Line_6" data-name="Line 6" x2="2.486" y2="5.151" transform="translate(98.533 58.997)" fill="none" stroke="#000" stroke-miterlimit="10" stroke-width="2" opacity="0.1"/>
    <path id="Path_21" data-name="Path 21" d="M420.766,340.971s51.09-.231,51.558-.693,11.249-.707,13.358,2.3,2.812,4.392,0,4.854S390.3,395.274,390.3,395.274s-5.156.462-2.578-4.623S420.766,340.971,420.766,340.971Z" transform="translate(-313.882 -298.66)" fill="#f6c964"/>
    <path id="Path_22" data-name="Path 22" d="M491.054,429.875c0,1.913-9.224,6.571-20.6,6.571s-20.6-4.659-20.6-6.571,9.224-2.664,20.6-2.664S491.054,427.962,491.054,429.875Z" transform="translate(-362.721 -366.429)" fill="#61ab43"/>
    <ellipse id="Ellipse_3" data-name="Ellipse 3" cx="20.602" cy="3.463" rx="20.602" ry="3.463" transform="translate(87.129 59.893)" fill="#61ab43"/>
    <path id="Path_23" data-name="Path 23" d="M602.594,415.534c0,1.913-9.224,6.571-20.6,6.571s-20.6-4.659-20.6-6.571,9.224-2.664,20.6-2.664S602.594,413.621,602.594,415.534Z" transform="translate(-449.397 -355.285)" fill="#61ab43"/>
    <ellipse id="Ellipse_4" data-name="Ellipse 4" cx="20.602" cy="3.463" rx="20.602" ry="3.463" transform="translate(111.994 56.696)" fill="#61ab43"/>
    <path id="Path_24" data-name="Path 24" d="M714.134,401.193c0,1.913-9.224,6.571-20.6,6.571s-20.6-4.659-20.6-6.571,9.224-2.664,20.6-2.664S714.134,399.28,714.134,401.193Z" transform="translate(-536.072 -344.141)" fill="#61ab43"/>
    <ellipse id="Ellipse_5" data-name="Ellipse 5" cx="20.602" cy="3.463" rx="20.602" ry="3.463" transform="translate(136.858 53.499)" fill="#61ab43"/>
    <path id="Path_25" data-name="Path 25" d="M406.259,273.68s-8.473-1.379-4.138-8.276,5.793-14.628,7.685-16.355c2.115-1.931,45.769-35.789,79.777,1.677a49.984,49.984,0,0,1,8.673,13.543,7.907,7.907,0,0,0,1.308,2.22c1.379,1.379,2.562,5.32,0,7.291S421.53,283.434,406.259,273.68Z" transform="translate(-324.672 -215.645)" fill="#3f3d56"/>
    <path id="Path_26" data-name="Path 26" d="M590.741,284.216a3.316,3.316,0,0,1-1.774.591c-.979,0-1.773-.265-1.773-.591s.794-.591,1.773-.591A3.315,3.315,0,0,1,590.741,284.216Z" transform="translate(-469.448 -254.852)" fill="#f2f2f2"/>
    <path id="Path_27" data-name="Path 27" d="M527.1,267.421a3.315,3.315,0,0,1-1.773.591c-.979,0-1.773-.265-1.773-.591s.794-.591,1.773-.591A3.315,3.315,0,0,1,527.1,267.421Z" transform="translate(-419.991 -241.801)" fill="#f2f2f2"/>
    <path id="Path_28" data-name="Path 28" d="M700.521,289.413a3.315,3.315,0,0,1-1.869.035c-.935-.292-1.614-.782-1.516-1.094s.934-.327,1.869-.035A3.315,3.315,0,0,1,700.521,289.413Z" transform="translate(-554.874 -258.337)" fill="#f2f2f2"/>
    <path id="Path_29" data-name="Path 29" d="M582.954,244.331a3.315,3.315,0,0,1-1.869.035c-.935-.292-1.614-.782-1.516-1.094s.934-.327,1.869-.035A3.314,3.314,0,0,1,582.954,244.331Z" transform="translate(-463.516 -223.305)" fill="#f2f2f2"/>
    <path id="Path_30" data-name="Path 30" d="M711.129,260.243a3.315,3.315,0,0,1-1.869.035c-.935-.292-1.614-.782-1.516-1.094s.934-.327,1.869-.035a3.316,3.316,0,0,1,1.516,1.094Z" transform="translate(-563.117 -235.669)" fill="#f2f2f2"/>
    <path id="Path_31" data-name="Path 31" d="M684.441,260.349a3.315,3.315,0,0,1-1.773.591c-.979,0-1.773-.265-1.773-.591s.794-.591,1.773-.591A3.315,3.315,0,0,1,684.441,260.349Z" transform="translate(-542.261 -236.306)" fill="#f2f2f2"/>
    <path id="Path_32" data-name="Path 32" d="M608.421,244.438a3.315,3.315,0,0,1-1.773.591c-.979,0-1.774-.265-1.774-.591s.794-.591,1.774-.591A3.315,3.315,0,0,1,608.421,244.438Z" transform="translate(-483.186 -223.942)" fill="#f2f2f2"/>
    <path id="Path_33" data-name="Path 33" d="M666.762,244.438a3.315,3.315,0,0,1-1.774.591c-.979,0-1.773-.265-1.773-.591s.794-.591,1.773-.591A3.315,3.315,0,0,1,666.762,244.438Z" transform="translate(-528.522 -223.942)" fill="#f2f2f2"/>
    <path id="Path_34" data-name="Path 34" d="M644.663,278.913a3.314,3.314,0,0,1-1.773.591c-.979,0-1.773-.265-1.773-.591s.794-.591,1.773-.591A3.314,3.314,0,0,1,644.663,278.913Z" transform="translate(-511.35 -250.731)" fill="#f2f2f2"/>
    <path id="Path_35" data-name="Path 35" d="M592.75,266.268a3.314,3.314,0,0,1,.93-1.622c.731-.652,1.5-.983,1.717-.74s-.2.97-.93,1.622A3.315,3.315,0,0,1,592.75,266.268Z" transform="translate(-473.765 -239.467)" fill="#f2f2f2"/>
    <path id="Path_36" data-name="Path 36" d="M552.971,256.544a3.315,3.315,0,0,1,.93-1.622c.731-.652,1.5-.983,1.717-.74s-.2.97-.93,1.622A3.315,3.315,0,0,1,552.971,256.544Z" transform="translate(-442.855 -231.911)" fill="#f2f2f2"/>
    <path id="Path_37" data-name="Path 37" d="M484.023,304.278a3.314,3.314,0,0,1,.93-1.622c.731-.652,1.5-.983,1.717-.74s-.2.97-.93,1.622a3.315,3.315,0,0,1-1.717.74Z" transform="translate(-389.276 -269.004)" fill="#f2f2f2"/>
    <path id="Path_38" data-name="Path 38" d="M636.948,251.24a3.315,3.315,0,0,1,.93-1.622c.731-.652,1.5-.983,1.717-.74s-.2.97-.93,1.622A3.315,3.315,0,0,1,636.948,251.24Z" transform="translate(-508.111 -227.79)" fill="#f2f2f2"/>
    <path id="Path_39" data-name="Path 39" d="M621.036,283.063a3.314,3.314,0,0,1,.93-1.622c.731-.652,1.5-.983,1.717-.74s-.2.97-.93,1.622a3.314,3.314,0,0,1-1.717.74Z" transform="translate(-495.746 -252.518)" fill="#f2f2f2"/>
    <path id="Path_40" data-name="Path 40" d="M877.05,637.975A9.788,9.788,0,0,0,873,640.4s-2.428,1.079-3.912.809-4.182,2.428-2.023,3.238,15.379,2.968,15.648,2.293.27-7.554.27-7.554Z" transform="translate(-686.305 -530.21)" fill="#575a89"/>
    <path id="Path_41" data-name="Path 41" d="M975.9,632.779a9.787,9.787,0,0,0-3.573,3.084s-2.208,1.478-3.716,1.466-3.706,3.107-1.441,3.536,15.66.3,15.81-.413-1.025-7.49-1.025-7.49Z" transform="translate(-763.965 -526.172)" fill="#575a89"/>
    <circle id="Ellipse_6" data-name="Ellipse 6" cx="6.07" cy="6.07" r="6.07" transform="translate(189.058 3.015)" fill="#ffb9b9"/>
    <path id="Path_42" data-name="Path 42" d="M934.481,199.851s.675,4.587,1.889,5.126a8.964,8.964,0,0,1,2.293,1.619l-3.372,1.619-6.61-.4s.539-2.968-.4-4.452S934.481,199.851,934.481,199.851Z" transform="translate(-734.429 -189.753)" fill="#ffb9b9"/>
    <path id="Path_43" data-name="Path 43" d="M993.88,297.279s3.1,7.959,0,15.648-4.452,8.9-4.452,8.9l-.944-10.117,1.086-.985a12.806,12.806,0,0,0,.123-4.887c-.534-1.817.275-7.483.275-7.483Z" transform="translate(-781.282 -265.462)" fill="#ffb9b9"/>
    <path id="Path_44" data-name="Path 44" d="M896.277,357.339s-3.912,8.9-3.507,13.22,3.507,22.528,3.507,22.528-.4,23.473.809,23.473,7.015,2.158,7.015.674,1.214-37.1,1.214-37.1,6.88,15.648,7.554,16.862,4.991,20.235,6.475,20.235,6.071-1.349,5.666-2.293-4.991-21.989-7.554-27.385-2.023-25.766-2.023-25.766l-4.317-9.443Z" transform="translate(-706.881 -308.255)" fill="#3f3d56"/>
    <path id="Path_45" data-name="Path 45" d="M909.91,160.874s-3.777-.27-4.047-1.214-.809-1.754-.54-1.754.4-.674.4-.674.27-.135.4,0,.27-.944.27-.944.135-.4.27-.135.135.135.27-.27.809-.674.809-.674,2.563.135,2.968-.4,4.991-.135,5.936.54,5.126,3.1,4.452,5.126-3.1,6.475-3.1,7.15-.944.54-1.214-.135-2.428-1.484-2.428-1.889-1.214-4.182-1.889-3.912-1.484,2.428-1.754,2.023A19.28,19.28,0,0,1,909.91,160.874Z" transform="translate(-716.603 -154.554)" fill="#3f3d56"/>
    <path id="Path_46" data-name="Path 46" d="M925.44,231.014s-5.531-8.094-7.15-8.5-5.261-1.484-5.261-1.484a26.536,26.536,0,0,0-4.721,1.079c-1.079.54-5.126,1.484-5.261,3.1s1.079,17.132.4,18.616-2.968,15.648-1.889,15.379.27-3.777,4.991-3.912,7.285-2.968,9.038.4,6.745,5.936,6.745,5.936a32.627,32.627,0,0,1,.54-3.238c.4-1.889-1.079-6.475-1.079-6.475s.135-10.657.675-11.871S925.44,231.014,925.44,231.014Z" transform="translate(-713.517 -206.212)" fill="#ff453a"/>
    <path id="Path_47" data-name="Path 47" d="M992.593,264.6l2.024.27s-.135,2.7.4,3.507,1.484,4.991.944,5.126-5.4.944-5.4.944l-.27-6.205Z" transform="translate(-782.693 -240.069)" fill="#ff453a"/>
    <path id="Path_48" data-name="Path 48" d="M868.886,286.387s-1.349,8.768-2.023,9.848-4.047,16.188-4.047,16.188-5.546,7.712-2.848,7.577,5.546-7.038,5.546-7.038,8.364-15.244,8.364-16.862,2.023-9.713,2.023-9.713Z" transform="translate(-680.839 -256.998)" fill="#ffb9b9"/>
    <path id="Path_49" data-name="Path 49" d="M902.84,233.134l-2.428.944s-3.1,11.062-2.428,12.006,8.768-.4,8.9-.809S905.4,233.134,902.84,233.134Z" transform="translate(-710.881 -215.617)" fill="#ff453a"/>
  </g>
</svg>
