<svg xmlns="http://www.w3.org/2000/svg" xmlns:xlink="http://www.w3.org/1999/xlink" width="1676.789" height="876.906" viewBox="0 0 1676.789 876.906">
  <defs>
    <linearGradient id="linear-gradient" x1="0.5" y1="1" x2="0.5" gradientUnits="objectBoundingBox">
      <stop offset="0" stop-color="gray" stop-opacity="0.251"/>
      <stop offset="0.54" stop-color="gray" stop-opacity="0.122"/>
      <stop offset="1" stop-color="gray" stop-opacity="0.102"/>
    </linearGradient>
    <linearGradient id="linear-gradient-2" x1="0.5" y1="1" x2="0.5" y2="0" xlink:href="#linear-gradient"/>
  </defs>
  <g id="Group_153" data-name="Group 153" transform="translate(-0.004 -57.27)">
    <ellipse id="Ellipse_111" data-name="Ellipse 111" cx="90.274" cy="32.098" rx="90.274" ry="32.098" transform="translate(37.851 703.234)" opacity="0.1"/>
    <ellipse id="Ellipse_112" data-name="Ellipse 112" cx="90.274" cy="32.098" rx="90.274" ry="32.098" transform="translate(1496.244 835.937)" opacity="0.1"/>
    <path id="Path_464" data-name="Path 464" d="M945.878,835.585s24.073-81.929-4.534-142.232a129.417,129.417,0,0,1-10.472-81.187,217.681,217.681,0,0,1,11.495-38.116" transform="translate(636.99 37.004)" fill="none" stroke="#535461" stroke-miterlimit="10" stroke-width="2"/>
    <path id="Path_465" data-name="Path 465" d="M926.52,564.18c0,10.031,18.175,39.159,18.175,39.159s18.176-29.108,18.176-39.159a18.185,18.185,0,0,0-36.371,0Z" transform="translate(635.023 8.778)" fill="#ff453a"/>
    <path id="Path_466" data-name="Path 466" d="M912.985,596.862c5.457,8.426,36.551,22.99,36.551,22.99s-.562-34.324-6.018-42.75a18.176,18.176,0,0,0-30.513,19.76Z" transform="translate(618.506 31.725)" fill="#ff453a"/>
    <path id="Path_467" data-name="Path 467" d="M917.193,647.417c8.967,4.514,43.151,1.4,43.151,1.4s-17.813-29.35-26.781-33.863a18.177,18.177,0,1,0-16.37,32.459Z" transform="translate(615.602 76.198)" fill="#ff453a"/>
    <path id="Path_468" data-name="Path 468" d="M924.445,682.348c8.024,6.018,42.288,8.666,42.288,8.666s-12.6-31.937-20.663-37.895a18.179,18.179,0,1,0-21.625,29.229Z" transform="translate(625.542 112.966)" fill="#ff453a"/>
    <path id="Path_469" data-name="Path 469" d="M969.214,610.877c-7.2,7-40.764,14.243-40.764,14.243s8.225-33.321,15.427-40.323a18.18,18.18,0,1,1,25.337,26.079Z" transform="translate(636.984 42.645)" fill="#ff453a"/>
    <path id="Path_470" data-name="Path 470" d="M979.9,654.337c-8.967,4.514-43.151,1.4-43.151,1.4s17.814-29.349,26.781-33.763a18.177,18.177,0,1,1,16.37,32.459Z" transform="translate(645.335 83.261)" fill="#ff453a"/>
    <path id="Path_471" data-name="Path 471" d="M983.1,695.587c-8.024,6.018-42.289,8.667-42.289,8.667s12.6-31.937,20.663-37.9A18.18,18.18,0,0,1,983.1,695.587Z" transform="translate(649.42 126.287)" fill="#ff453a"/>
    <path id="Path_472" data-name="Path 472" d="M230.647,916.047s51.537-174.771-9.629-303.563c-25.678-54.024-34.1-114.648-22.328-173.267a464.478,464.478,0,0,1,24.535-81.327" transform="translate(-102.481 -180.475)" fill="none" stroke="#535461" stroke-miterlimit="10" stroke-width="2"/>
    <path id="Path_473" data-name="Path 473" d="M189.34,336.8c0,21.425,38.8,83.574,38.8,83.574s38.778-62.189,38.778-83.574a38.8,38.8,0,0,0-77.6,0Z" transform="translate(-106.653 -240.73)" fill="#ff453a"/>
    <path id="Path_474" data-name="Path 474" d="M160.236,406.167c11.655,18.055,78,49.069,78,49.069s-1.2-73.262-12.859-91.237a38.8,38.8,0,0,0-65.138,42.128Z" transform="translate(-141.683 -191.398)" fill="#ff453a"/>
    <path id="Path_475" data-name="Path 475" d="M169.451,514.44c19.138,9.649,92.1,2.989,92.1,2.989S223.435,454.8,204.4,445.209A38.8,38.8,0,1,0,169.451,514.5Z" transform="translate(-148.11 -96.814)" fill="#ff453a"/>
    <path id="Path_476" data-name="Path 476" d="M184.89,589c17.232,12.739,90.274,18.5,90.274,18.5s-26.882-68.208-44.134-80.886A38.8,38.8,0,1,0,184.89,589Z" transform="translate(-126.937 -18.374)" fill="#ff453a"/>
    <path id="Path_477" data-name="Path 477" d="M280.474,436.436c-15.367,14.926-86.984,30.393-86.984,30.393s17.533-71.136,32.9-86.062a38.836,38.836,0,0,1,54.165,55.669Z" transform="translate(-102.457 -168.526)" fill="#ff453a"/>
    <path id="Path_478" data-name="Path 478" d="M303.29,529.319c-19.138,9.649-92.1,2.989-92.1,2.989s38.116-62.63,57.154-72.219A38.8,38.8,0,1,1,303.29,529.38Z" transform="translate(-84.649 -81.843)" fill="#ff453a"/>
    <path id="Path_479" data-name="Path 479" d="M310.124,617.275c-17.232,12.738-90.274,18.5-90.274,18.5s26.882-68.207,44.134-80.886a38.8,38.8,0,0,1,46.141,62.39Z" transform="translate(-75.936 10.068)" fill="#ff453a"/>
    <path id="Path_480" data-name="Path 480" d="M587.3,431.3,475.5,416.812c-4.534-.582-8.024-2.307-7.9-3.812h0c.2-1.5,4.012-2.207,8.646-1.545L587.8,427.6c3.069.442,5.4,1.6,5.256,2.628h0C592.912,431.2,590.345,431.7,587.3,431.3Z" transform="translate(173.313 -126.834)" fill="#713800"/>
    <path id="Path_481" data-name="Path 481" d="M588.149,428.049l-112.141-11.6c-4.554-.461-8.426.381-8.566,1.886h0c-.141,1.5,3.49,3.09,8.024,3.491L587.808,431.86c3.09.281,5.617-.321,5.717-1.344h0C593.606,429.433,591.218,428.37,588.149,428.049Z" transform="translate(173.161 -121.681)" fill="#713800"/>
    <path id="Path_482" data-name="Path 482" d="M614.371,474.3l111.78-14.484c4.533-.582,8.024-2.307,7.9-3.812h0c-.2-1.5-4.012-2.207-8.646-1.545L613.849,470.6c-3.07.441-5.4,1.6-5.256,2.628h0C608.733,474.2,611.3,474.7,614.371,474.3Z" transform="translate(315.171 -83.572)" fill="#713800"/>
    <path id="Path_483" data-name="Path 483" d="M613.807,471.049l112.141-11.6c4.554-.461,8.426.381,8.567,1.886h0c.14,1.5-3.492,3.089-8.025,3.491L614.148,474.86c-3.089.281-5.617-.321-5.717-1.344h0C608.351,472.433,610.738,471.37,613.807,471.049Z" transform="translate(315.012 -78.419)" fill="#713800"/>
    <rect id="Rectangle_54" data-name="Rectangle 54" width="27.263" height="390.908" transform="translate(532.495 510.789)" fill="#40414d"/>
    <rect id="Rectangle_55" data-name="Rectangle 55" width="27.263" height="390.908" transform="translate(1127.945 510.789)" fill="#40414d"/>
    <path id="Path_484" data-name="Path 484" d="M282.384,386.78H912.3a44.135,44.135,0,0,1,44.134,44.134v5.858H238.25v-5.858a44.134,44.134,0,0,1,44.134-44.134Z" transform="translate(239.699 92.192)" fill="#dfe6f5"/>
    <path id="Path_485" data-name="Path 485" d="M281.384,386.78H911.3a44.135,44.135,0,0,1,44.134,44.135v5.858H237.25v-5.858a44.134,44.134,0,0,1,44.134-44.134Z" transform="translate(238.693 92.192)" opacity="0.1"/>
    <path id="Path_486" data-name="Path 486" d="M282.384,382.24H912.3a44.134,44.134,0,0,1,44.134,44.134v5.858H238.25v-5.858A44.134,44.134,0,0,1,282.384,382.24Z" transform="translate(239.699 87.624)" fill="#dfe6f5"/>
    <circle id="Ellipse_113" data-name="Ellipse 113" cx="54.546" cy="54.546" r="54.546" transform="translate(782.495 328.956)" fill="#ffd77c" stroke="#ffab50" stroke-miterlimit="10" stroke-width="1"/>
    <circle id="Ellipse_114" data-name="Ellipse 114" cx="43.231" cy="43.231" r="43.231" transform="translate(793.809 340.27)" fill="#ffd77c" stroke="#ffab50" stroke-miterlimit="10" stroke-width="1"/>
    <circle id="Ellipse_115" data-name="Ellipse 115" cx="32.94" cy="32.94" r="32.94" transform="translate(804.1 350.562)" fill="#ffd77c" stroke="#ffab50" stroke-miterlimit="10" stroke-width="1"/>
    <circle id="Ellipse_116" data-name="Ellipse 116" cx="18.516" cy="18.516" r="18.516" transform="translate(818.524 364.986)" fill="#ffd77c" stroke="#ffab50" stroke-miterlimit="10" stroke-width="1"/>
    <circle id="Ellipse_117" data-name="Ellipse 117" cx="54.546" cy="54.546" r="54.546" transform="translate(750.678 358.506)" fill="#ffd77c" stroke="#ffab50" stroke-miterlimit="10" stroke-width="1"/>
    <circle id="Ellipse_118" data-name="Ellipse 118" cx="43.231" cy="43.231" r="43.231" transform="translate(761.992 369.82)" fill="#ffd77c" stroke="#ffab50" stroke-miterlimit="10" stroke-width="1"/>
    <circle id="Ellipse_119" data-name="Ellipse 119" cx="32.94" cy="32.94" r="32.94" transform="translate(772.284 380.112)" fill="#ffd77c" stroke="#ffab50" stroke-miterlimit="10" stroke-width="1"/>
    <circle id="Ellipse_120" data-name="Ellipse 120" cx="18.516" cy="18.516" r="18.516" transform="translate(786.708 394.535)" fill="#ffd77c" stroke="#ffab50" stroke-miterlimit="10" stroke-width="1"/>
    <circle id="Ellipse_121" data-name="Ellipse 121" cx="54.546" cy="54.546" r="54.546" transform="translate(814.312 358.506)" fill="#ffd77c" stroke="#ffab50" stroke-miterlimit="10" stroke-width="1"/>
    <circle id="Ellipse_122" data-name="Ellipse 122" cx="43.231" cy="43.231" r="43.231" transform="translate(825.626 369.82)" fill="#ffd77c" stroke="#ffab50" stroke-miterlimit="10" stroke-width="1"/>
    <circle id="Ellipse_123" data-name="Ellipse 123" cx="32.94" cy="32.94" r="32.94" transform="translate(835.917 380.112)" fill="#ffd77c" stroke="#ffab50" stroke-miterlimit="10" stroke-width="1"/>
    <circle id="Ellipse_124" data-name="Ellipse 124" cx="18.516" cy="18.516" r="18.516" transform="translate(850.341 394.535)" fill="#ffd77c" stroke="#ffab50" stroke-miterlimit="10" stroke-width="1"/>
    <path id="Path_487" data-name="Path 487" d="M360.6,346H587.871v10.672a80.244,80.244,0,0,1-80.244,80.244H440.844A80.244,80.244,0,0,1,360.6,356.672Z" transform="translate(362.795 51.163)" fill="#dbdbdb"/>
    <path id="Path_488" data-name="Path 488" d="M679.973,467.42a90.9,90.9,0,0,1-90.856,88.629H544a91.13,91.13,0,0,0,20.061,2.287h45.458a90.917,90.917,0,0,0,90.957-90.916Z" transform="translate(250.19 -70.277)" opacity="0.1"/>
    <rect id="Rectangle_56" data-name="Rectangle 56" width="27.263" height="590.916" transform="translate(1141.586 808.514) rotate(90)" fill="#40414d"/>
    <rect id="Rectangle_57" data-name="Rectangle 57" width="23.853" height="217.02" transform="translate(305.264 713.304)" fill="#40414d"/>
    <rect id="Rectangle_58" data-name="Rectangle 58" width="23.853" height="217.02" transform="translate(493.657 713.304)" fill="#40414d"/>
    <path id="Path_489" data-name="Path 489" d="M524.43,620.35c0,14.484-49.109,26.24-109.693,26.24S307.43,634.854,307.43,620.35s46.722-26.24,107.306-26.24S524.43,605.926,524.43,620.35Z" transform="translate(12.178 57.186)" fill="#f6c6cd"/>
    <path id="Path_490" data-name="Path 490" d="M142.66,485.75h250.4v21.866A21.064,21.064,0,0,1,372,528.68H178.77a36.11,36.11,0,0,1-36.11-36.11Z" transform="translate(143.526 191.765)" fill="#40414d"/>
    <path id="Path_491" data-name="Path 491" d="M14.083,0h5.3A14.043,14.043,0,0,1,33.422,14.043V298.066H25.4A25.4,25.4,0,0,1,0,272.669V14.043A14.043,14.043,0,0,1,14.083,0Z" transform="translate(229.931 429.695) rotate(-12.72)" fill="#40414d"/>
    <rect id="Rectangle_59" data-name="Rectangle 59" width="23.853" height="217.02" transform="translate(1372.809 934.176) rotate(180)" fill="#40414d"/>
    <rect id="Rectangle_60" data-name="Rectangle 60" width="23.853" height="217.02" transform="translate(1184.416 934.176) rotate(180)" fill="#40414d"/>
    <path id="Path_492" data-name="Path 492" d="M717.13,622.3c0,14.484,49.109,26.24,109.693,26.24S934.13,636.8,934.13,622.3,887.388,596,826.824,596,717.13,607.816,717.13,622.3Z" transform="translate(424.376 59.087)" fill="#f6c6cd"/>
    <path id="Path_493" data-name="Path 493" d="M36.11,0H229.337A21.064,21.064,0,0,1,250.4,21.064V42.931H0V36.11A36.11,36.11,0,0,1,36.11,0Z" transform="translate(1391.887 724.318) rotate(180)" fill="#40414d"/>
    <path id="Path_494" data-name="Path 494" d="M25.357,0h8.024V284.063a14.043,14.043,0,0,1-14.043,14.043h-5.3A14.043,14.043,0,0,1,0,284.063V25.4A25.4,25.4,0,0,1,25.357,0Z" transform="translate(1382.512 724.279) rotate(-167.28)" fill="#40414d"/>
    <path id="Path_495" data-name="Path 495" d="M1020.137,828.4l7.041-2.227s-12.036-80.4-11.916-152.464V667.5c.141-4.494.3-8.947.522-13.3.281-5.577.341-10.893.3-16.049.662-69.391-26.681-98.7-26.681-98.7s-32.1-45.779-51.336-54.686c-1.665-5.216-3.571-11.916-5.255-19.7.622-.421,1.223-.842,1.8-1.284a259.657,259.657,0,0,0,22.769-19c9.87-9.248,19.339-20.523,18.817-33.241a24.33,24.33,0,0,0-.12-3.711c-1.825-15.346-17.774-26.9-24.213-41.446-5.417-12.217-3.792-25.819-8.526-38.216s-21.264-23.933-33.742-17.413c-4.594,2.407-7.362,6.66-11.194,9.89-9.509,8.025-24.836,8.767-37.835,5.116s-16.851-18.537-35.027-18.577a21.117,21.117,0,0,1,4.594,2.186,28.921,28.921,0,0,0-4.594-.4,20.062,20.062,0,0,1,13.882,16.871,13.954,13.954,0,0,1-.161,1.444c-7.262,3.912-16.811,1.685-25.517,1.545S795.133,333.078,796,340.2a6.865,6.865,0,0,0,0,2.448c1.143,5.4,8.365,9.469,9.248,14.464v.4a149.978,149.978,0,0,1-51.457,15.006c-.582,0-.321.7.521,1.725h-.521c-3.27.341,19.6,18.416,22.208,19.6,9.549,4.333,20.964,7.523,31.074,10.853l.883.281a63.271,63.271,0,0,0-5.156,25.056c0,30.894,22.208,56.853,52.279,64.2,5.617,6.56,11.515,13.762,16.891,20.923h-.381S837.02,561.132,838.124,629.8a200.752,200.752,0,0,0,1.364,25.758c-22.228-1.264-69.993-7.122-106.323-33.723-49.009-35.849-103.675-25.1-92.28-3.591s69.752,39.42,79.16,41.225c.883.16,2.929.642,5.858,1.364-11.6,2.187-19.539,6.018-19.058,11.174.942,9.85,50.894,41.225,81.046,43.011,19.921,1.184,43.894,7.322,62.811,12.719,1.825,41.226-8.145,53.583-8.145,53.583s2.969,1.825,7.884,4.413l-2.106,6.018c-12.237,7.062-27.323,14.424-41.045,17.393A225.448,225.448,0,0,0,756.656,826L688.79,858.8a39.3,39.3,0,0,0-22.469,30.874c-1.484,13.9,2.708,31.275,25.418,45.057,1.4,11.294,8.305,24.474,26.42,36.551,35.107,23.351,127.367,93.3,139.925,102.852.241,17.072-2.006,51.316-23.07,56.652-26.4,6.7-5.155,32.1,16.189,31.095a27.967,27.967,0,0,0,15.868,1.163c22.629-5.376,105.561-34.1,111.218-77.074a41.149,41.149,0,0,0,.321-5.617,37.47,37.47,0,0,0-5.256-20.883,37.583,37.583,0,0,1,2.146,6.018c-6.86-15.647-23.571-25.477-36.571-31.014v-.441c-2.006-.782-4.012-1.424-5.657-2.006a16.852,16.852,0,0,0-.261-3.47L802.957,938.941s56.552-46.6,114.99-39.42,67.746-3.431,67.746-3.431,29.971-28.507,32.98-61.326l1.886-.5S1020.418,832.2,1020.137,828.4Z" transform="translate(346.132 -231.494)" fill="url(#linear-gradient)"/>
    <path id="Path_496" data-name="Path 496" d="M766.467,702.043s5.316,58.518-21.285,65.619-1.765,35.468,19.5,30.092,99.322-33.7,104.638-76.232-53.2-56.752-53.2-56.752Z" transform="translate(440.98 128.277)" fill="#b8616e"/>
    <path id="Path_497" data-name="Path 497" d="M766.467,702.043s5.316,58.518-21.285,65.619-1.765,35.468,19.5,30.092,99.322-33.7,104.638-76.232-53.2-56.752-53.2-56.752Z" transform="translate(440.98 128.277)" opacity="0.05"/>
    <path id="Path_498" data-name="Path 498" d="M771.8,702.923s5.316,58.518-21.285,65.619-1.765,35.468,19.5,30.091,99.322-33.7,104.638-76.232-53.2-56.753-53.2-56.753Z" transform="translate(446.343 129.162)" fill="#b8616e"/>
    <path id="Path_499" data-name="Path 499" d="M807.611,666.55,758,703.8s.221,2.528.361,6.56c18.738-5.135,59.561-18.777,60.183-40.122A96.258,96.258,0,0,0,807.611,666.55Z" transform="translate(465.495 130.067)" opacity="0.1"/>
    <rect id="Rectangle_61" data-name="Rectangle 61" width="21.285" height="15.969" transform="translate(1220.787 286.728)" fill="#f8bdc5"/>
    <path id="Path_500" data-name="Path 500" d="M854.627,541s-33.8,26.561-61.568,32.86a204.968,204.968,0,0,0-47.644,16.671l-63.854,32.459a38.8,38.8,0,0,0-21.144,30.553c-1.825,18.055,5.437,41.807,48.768,55.93l136.555,113.5,42.569-35.468L742.887,675.81l111.74-69.17Z" transform="translate(367.063 3.752)" fill="#1f1f1f"/>
    <path id="Path_502" data-name="Path 502" d="M847.7,510.287s-65.619,1.765-111.74-33.7-97.536-24.836-86.9-3.551,65.62,39.019,74.486,40.784S860.1,551.071,860.1,551.071Z" transform="translate(354.468 -84.336)" fill="#f8bdc5"/>
    <path id="Path_503" data-name="Path 503" d="M847.7,510.287s-65.619,1.765-111.74-33.7-97.536-24.836-86.9-3.551,65.62,39.019,74.486,40.784S860.1,551.071,860.1,551.071Z" transform="translate(354.468 -84.336)" opacity="0.05"/>
    <path id="Path_504" data-name="Path 504" d="M830.233,533.06l-21.284,63.854s-119.7,73.6-129.474,83.353c-7.583,7.584-17.733,37.253,17.734,62.068s133,102.873,133,102.873,74.487-16.048,69.17-46.14L777.011,710.4s53.2-46.14,108.189-39.018,63.854-3.551,63.854-3.551,42.57-42.61,28.367-83.333S830.233,533.06,830.233,533.06Z" transform="translate(379.039 -4.237)" fill="#292929"/>
    <path id="Path_505" data-name="Path 505" d="M737.65,415.692s60.3,65.619,56.752,85.118,47.885-56.753,47.885-56.753-16.048-39.019-12.418-81.588Z" transform="translate(445.021 -175.867)" fill="#f8bdc5"/>
    <path id="Path_506" data-name="Path 506" d="M787,438.863a176.331,176.331,0,0,1,12.979-12.378A179.927,179.927,0,0,0,824.83,401.67c12.418-16.049,58.518,53.2,58.518,53.2s28.366,31.917,24.835,108.189S912.618,741.3,912.618,741.3l-10.733,2.989a61.445,61.445,0,0,1-54.365-7.723c-14.163-9.79-32.1-20.061-45.739-20.984-26.6-1.765-50.553-16.851-50.553-16.851s11.535-27.484-6.2-116.173,27.463-151.721,27.463-151.721S776.063,450.138,787,438.863Z" transform="translate(448.295 -138.855)" opacity="0.1"/>
    <path id="Path_507" data-name="Path 507" d="M918.776,735.985l-10.632,3.551-6.319,2.106a61.428,61.428,0,0,1-54.365-7.724c-14.142-9.769-32.1-20.061-45.739-20.984-26.561-1.785-56.652-21.285-56.652-21.285s17.734-23.05,0-111.739,27.484-151.641,27.484-151.641,3.571,19.2,14.5,7.9a174.163,174.163,0,0,1,12.96-12.358A179.973,179.973,0,0,0,824.87,399c12.418-16.049,58.518,53.2,58.518,53.2s28.366,31.917,24.835,108.189c-.381,8.024-.542,16.289-.561,24.655C907.4,656.423,918.776,735.985,918.776,735.985Z" transform="translate(448.336 -141.542)" fill="#ff453a"/>
    <path id="Path_508" data-name="Path 508" d="M836.894,484.472l1.766,39.019s-94.006,5.316-113.505-14.183,53.161,57.354,69.21,62.069c15.066,4.433,53.964,8.345,74.366,8.746a30.092,30.092,0,0,0,28.086-17.032,28.388,28.388,0,0,0,2.206-16.55c-3.551-23.05,0-72.721,0-72.721Z" transform="translate(429.131 -63.838)" opacity="0.1"/>
    <path id="Path_509" data-name="Path 509" d="M879.719,482.7l1.765,39.019s-94.006,5.316-113.505-14.183-90.053-15.186-88.669,0c.883,9.75,47.885,40.784,76.232,42.57s65.6,14.785,81.648,19.5c15.066,4.433,53.964,8.345,74.366,8.747a30.091,30.091,0,0,0,28.086-17.032,28.386,28.386,0,0,0,2.206-16.55c-3.551-23.05,0-72.721,0-72.721Z" transform="translate(386.305 -65.618)" fill="#f8bdc5"/>
    <path id="Path_510" data-name="Path 510" d="M807.838,420.8s-40.784,5.316-35.468,65.62,12.418,65.619,12.418,65.619,60.3-5.316,67.385-7.1,3.551-67.385,3.551-67.385S853.938,419.034,807.838,420.8Z" transform="translate(479.472 -117.221)" opacity="0.1"/>
    <path id="Path_511" data-name="Path 511" d="M807.838,419.921s-40.784,5.316-35.468,65.62,12.418,65.619,12.418,65.619,60.3-5.316,67.385-7.1,3.551-67.385,3.551-67.385S853.938,418.115,807.838,419.921Z" transform="translate(479.472 -118.107)" fill="#ff453a"/>
    <path id="Path_512" data-name="Path 512" d="M826.347,399.67c-2.789-14.042,2.929-18.376,4.433-36.35l-92.28,53.2s10.572,11.515,22.588,26.3a65.74,65.74,0,0,0,16.431,2.006C801.693,444.928,814.912,418.969,826.347,399.67Z" transform="translate(445.876 -175.011)" opacity="0.1"/>
    <circle id="Ellipse_125" data-name="Ellipse 125" cx="65.619" cy="65.619" r="65.619" transform="translate(1156.05 136.872)" fill="#f8bdc5"/>
    <path id="Path_513" data-name="Path 513" d="M829.871,410.584c-10.031,6.379-10.171,20.8-3.712,30.793s17.593,16.59,28.306,22.81c3.109,1.805,6.54,3.671,10.03,3.27a14.786,14.786,0,0,0,7.182-3.631,247.649,247.649,0,0,0,21.425-18.8c9.749-9.589,19.118-21.405,17.594-34.786-1.726-15.186-16.731-26.621-22.79-41-5.1-12.036-3.571-25.538-8.024-37.835s-20.061-23.672-31.736-17.232c-4.313,2.367-6.921,6.6-10.533,9.79-8.947,7.9-23.371,8.686-35.608,5.075s-15.868-18.356-32.94-18.4c8.486,2.989,14.223,11.836,12.919,19.9-6.841,3.872-15.828,1.665-24.073,1.525s-18.055,4.474-16.63,11.9c1.244,6.018,9.93,10.492,8.646,16.51A135.926,135.926,0,0,1,701.5,375.316c-3.07.341,18.436,18.216,20.883,19.4,8.968,4.293,19.74,7.442,29.229,10.733C777.391,414.335,803.791,417.505,829.871,410.584Z" transform="translate(408.35 -228.013)" opacity="0.1"/>
    <path id="Path_514" data-name="Path 514" d="M829.87,409.694c-10.031,6.379-10.172,20.8-3.712,30.794s17.594,16.59,28.306,22.809c3.11,1.806,6.54,3.671,10.031,3.27a14.784,14.784,0,0,0,7.182-3.631,247.648,247.648,0,0,0,21.425-18.8c9.75-9.589,19.118-21.405,17.594-34.786-1.725-15.186-16.731-26.621-22.789-41-5.1-12.037-3.571-25.538-8.025-37.835s-20.06-23.672-31.736-17.232c-4.313,2.367-6.921,6.6-10.533,9.79-8.947,7.9-23.371,8.686-35.608,5.075s-15.868-18.356-32.941-18.4c8.486,2.989,14.224,11.836,12.92,19.9-6.841,3.872-15.828,1.665-24.074,1.525s-18.055,4.473-16.63,11.9c1.244,6.018,9.93,10.492,8.646,16.51A135.933,135.933,0,0,1,701.5,374.427c-3.07.341,18.436,18.215,20.883,19.4,8.968,4.293,19.74,7.443,29.229,10.732C777.39,413.465,803.791,416.575,829.87,409.694Z" transform="translate(408.35 -228.908)" fill="#916168"/>
    <path id="Path_515" data-name="Path 515" d="M869.646,680.89a39.135,39.135,0,0,1,2.869,20.883c-5.316,42.57-83.353,70.936-104.638,76.232-11.214,2.808-23.431-3.751-28.547-11.635,3.29,9.269,17.452,18.4,30.332,15.186,21.285-5.316,99.322-33.7,104.638-76.231A38.934,38.934,0,0,0,869.646,680.89Z" transform="translate(446.711 144.495)" fill="#fff" opacity="0.1"/>
    <path id="Path_516" data-name="Path 516" d="M809.1,1100.1h0c-1.585-3.571-9.81-10.532-49.471-12.037-27.162-1.023-36.411-15.366-38.918-29.369,8.927-1.163,15.909-2.768,18.2-5,0,0-.121-.642-.321-1.786l.321-.241A187.929,187.929,0,0,1,736.2,1021.1a117.613,117.613,0,0,1,2.768-26.079,76.923,76.923,0,0,0,1.384-17.192c.221-34.1-11.755-94.046-11.755-94.046l-1.645-49.812a34.6,34.6,0,0,0-18.837-29.891,28.348,28.348,0,0,0-12.739-3.17S632.505,791,575.913,785.6c-4.012-3.23-18.155-11.936-50.574-6.941l-18.657-54.606a15.48,15.48,0,0,1-.321-2.006c.662-6.941,5.3-17.393,26.9-18.055l4.514,4.012s.8-1.585,2.147-4.012c26.8-.3,172.805-1.785,180.328,0,8.285,2.006,80.866-14.163,82.952-16.169,28.206-27.5-82.952-14.163-82.952-14.163-10.933,1.785-46.261-.341-82.451-3.29,17.914-26.862,34.765-118.039,34.765-118.039s64.2-32.358,45.619-50.554-74.647,40.443-74.647,40.443-22.809,66.743-33.181,86.964c-4.012,8.024-9.208,9.669-13.842,8.746,2.106-1.685,3.471-2.688,3.471-2.688s-45.619-36.411-49.771-50.554a33.788,33.788,0,0,0-3.049-6.64c-2.187-12.819-6.018-25.437-15.367-33.843a34.776,34.776,0,0,0-5.175-4.554c-2.528-1.805-5.4-3.37-7.784-5.336h0c1.344-6.179,2.909-12.6,4.534-18.817,33.863-4.012,60.183-32.1,60.183-66.2a65.319,65.319,0,0,0-1.825-15.266,29.409,29.409,0,0,0,26.079-12.558c6.841-10.191,6.62-24.073.883-34.826a43.114,43.114,0,0,0-9.188-11.6,54.345,54.345,0,0,0-21.064-13.16c-6.881-2.387-14.484-3.812-19.941-8.486a88.414,88.414,0,0,1-6.64-10.03,51.338,51.338,0,0,0-8.025-9.349c-10.03-10.331-24.193-16.691-38.617-19.5-17.573-3.43-35.728-2.207-53.6-.983-6.68.461-14.524,1.645-17.533,7.463-2.267,4.373-.782,9.609-1.083,14.484-.943,15.507-18.677,24.073-34.1,27.824s-33.823,7-41.266,20.6c-6.76,12.277-2.006,27.162.161,40.944a100.164,100.164,0,0,1-15.106,69.391c-6.781,10.372-15.527,19.6-20.883,30.733a58.6,58.6,0,0,0-3.892,39.841c1,3.892,2.447,7.864,1.725,11.836a20.643,20.643,0,0,1-4.694,8.807,106.322,106.322,0,0,1-75.63,39.179,21.667,21.667,0,0,0,6.9,10.412,49.86,49.86,0,0,0,14.324,9.89,216.269,216.269,0,0,0,43.934,16.35c10.231,2.588,20.924,4.433,31.335,2.668s20.562-7.724,24.835-17.152c2.488-5.457,2.849-11.635,5.056-17.192,4.393-11.114,15.286-18.316,22.649-27.845a696.229,696.229,0,0,0-3.51,73.9v21.144c0,27.865-2.006,47.083-19.279,81.889a20.784,20.784,0,0,0-2.588,12.037,13.2,13.2,0,0,0,4.514,12.257,118.86,118.86,0,0,0-1.745,21.024c-.241,25.357,8.326,59.4,53.744,68.027l80.866-4.012s114.047-22.248,145.141-6.018a11.475,11.475,0,0,1,9.087,11.194,25.741,25.741,0,0,1-.782,5,78.515,78.515,0,0,0-.983,15.908c-.141,34.1,7.2,111.5,7.2,111.5v32.82c-5.176,7.784-11.555,19.3-10.733,27.784v.562a1.738,1.738,0,0,0,.12.742c.12.241,0,.441.141.662a1.933,1.933,0,0,1,.181.642,5,5,0,0,0,.261.7c.1.221.141.361.221.542s.261.521.4.762l.24.421a9.748,9.748,0,0,0,.8,1.1c10.372,12.037,62.189,35.327,78.8,34.385,17.634-1,76.713,2.006,78.8-24.274A3.189,3.189,0,0,0,809.1,1100.1Z" transform="translate(-56.358 -226.348)" fill="url(#linear-gradient-2)"/>
    <path id="Path_517" data-name="Path 517" d="M458.129,688.735s-24.073,30.091-14.043,42.128,60.183,35.046,76.232,34.1c17.052-1,74.226,2.006,76.232-24.073,0,0,4.012-12.037-48.146-14.043s-36.11-56.171-36.11-56.171Z" transform="translate(147.207 134.223)" fill="#594c76"/>
    <path id="Path_518" data-name="Path 518" d="M308.792,559s-24.073,82.25,48.146,96.293l78.238-4.012s110.335-22.067,140.427-6.018c0,0,12.037,2.006,8.025,18.055s6.018,124.378,6.018,124.378V823.8s68.207,0,76.232-8.024c0,0-6.018-32.1,0-58.177s-10.03-108.329-10.03-108.329l-1.585-49.511a34.425,34.425,0,0,0-18.175-29.69,26.887,26.887,0,0,0-12.317-3.13s-136.415-22.067-184.561-18.055S308.792,559,308.792,559Z" transform="translate(9.673 11.194)" opacity="0.1"/>
    <path id="Path_519" data-name="Path 519" d="M308.792,557.995s-24.073,82.25,48.146,96.293l78.238-4.012s110.335-22.068,140.427-6.019c0,0,12.037,2.006,8.025,18.055s6.018,124.378,6.018,124.378V822.8s68.207,0,76.232-8.024c0,0-6.018-32.1,0-58.177s-10.03-108.33-10.03-108.33l-1.585-49.511a34.425,34.425,0,0,0-18.175-29.69,26.877,26.877,0,0,0-12.317-3.129s-136.415-22.067-184.561-18.055S308.792,557.995,308.792,557.995Z" transform="translate(9.673 10.188)" fill="#8b9cd1"/>
    <path id="Path_520" data-name="Path 520" d="M417.909,536.807s16.049,20.061,26.079,0,32.1-86.262,32.1-86.262,54.165-58.177,72.22-40.122-44.134,50.152-44.134,50.152S482.1,582.947,462.043,584.953s-50.152,0-50.152,0L401.86,562.886Z" transform="translate(107.184 -131.118)" fill="#f8bdc5"/>
    <path id="Path_521" data-name="Path 521" d="M417.909,536.807s16.049,20.061,26.079,0,32.1-86.262,32.1-86.262,54.165-58.177,72.22-40.122-44.134,50.152-44.134,50.152S482.1,582.947,462.043,584.953s-50.152,0-50.152,0L401.86,562.886Z" transform="translate(107.184 -131.118)" opacity="0.05"/>
    <path id="Path_522" data-name="Path 522" d="M391.97,421.68s36.109,42.128,40.122,56.171S480.238,528,480.238,528s-32.1,24.073-26.079,36.11-42.128-40.122-42.128-40.122l-56.171-82.25Z" transform="translate(60.903 -116.296)"/>
    <path id="Path_524" data-name="Path 524" d="M432.16,406.61s-18.055,58.177-18.055,80.244-76.232-6.018-74.226-18.055,44.134-56.171,46.14-74.226S432.16,406.61,432.16,406.61Z" transform="translate(44.786 -149.372)" fill="#f8bdc5"/>
    <path id="Path_525" data-name="Path 525" d="M408.507,418.3s-70.213-18.055-80.244,84.256S336.288,616.9,306.2,679.089s204.622,8.024,204.622,8.024-12.036-14.043-50.152-8.024l-18.055-54.164s-6.018-24.073,28.085-24.073,18.055-70.213,18.055-70.213-18.055-60.183-28.085-66.2S432.58,422.308,408.507,418.3Z" transform="translate(8.256 -120.936)" opacity="0.1"/>
    <path id="Path_526" data-name="Path 526" d="M408.507,416.3s-70.213-18.055-80.244,84.256S336.288,614.9,306.2,677.089s204.622,8.024,204.622,8.024-12.036-14.043-50.152-8.024l-18.055-54.165s-6.018-24.073,28.085-24.073,18.055-70.214,18.055-70.214-18.055-60.183-28.085-66.2S432.58,420.308,408.507,416.3Z" transform="translate(8.256 -122.948)"/>
    <path id="Path_527" data-name="Path 527" d="M395.89,487.68s146.445,16.049,170.518,12.037c0,0,107.527-13.24,80.244,14.042-2.006,2.006-72.22,18.055-80.244,16.049s-178.543,0-178.543,0l-2.006-20.061Z" transform="translate(91.086 -49.893)" fill="#f8bdc5"/>
    <path id="Path_528" data-name="Path 528" d="M337.844,501.6l106.323,96.293s20.061-40.122,26.079-40.122-72.219-118.36-72.219-118.36-20.061-24.073-32.1-12.037S317.783,431.382,337.844,501.6Z" transform="translate(36.791 -113.961)" opacity="0.1"/>
    <path id="Path_529" data-name="Path 529" d="M336.844,499.6l106.323,96.293s20.061-40.122,26.079-40.122-72.219-118.36-72.219-118.36-20.061-24.073-32.1-12.037S316.783,429.383,336.844,499.6Z" transform="translate(35.785 -115.974)"/>
    <circle id="Ellipse_126" data-name="Ellipse 126" cx="66.201" cy="66.201" r="66.201" transform="translate(392.69 160.945)" fill="#f8bdc5"/>
    <path id="Path_530" data-name="Path 530" d="M567.551,433.171c11.234,4.433,25-.883,31.616-10.974s6.419-23.832.843-34.545-15.888-18.5-27.263-22.548c-6.9-2.448-14.584-3.852-19.88-8.907-3.35-3.19-5.336-7.5-7.844-11.395-9.369-14.6-26.079-23.231-43.071-26.621s-34.565-2.187-51.858-.983c-6.46.461-14.043,1.625-16.972,7.4-2.187,4.333-.762,9.529-1.043,14.364-.9,15.387-18.055,23.913-33.04,27.6s-32.358,7.162-39.66,20.723c-6.54,12.177-1.866,26.942.161,40.624a101.388,101.388,0,0,1-14.6,68.669c-6.56,10.291-15.005,19.439-20.2,30.493a59.46,59.46,0,0,0-3.771,39.52c.983,3.872,2.367,7.8,1.685,11.736a20.645,20.645,0,0,1-4.534,8.727,102.069,102.069,0,0,1-73.162,38.958c2.287,8.606,10.612,14.043,18.536,18.055a206.029,206.029,0,0,0,42.489,16.209c9.89,2.568,20.242,4.393,30.312,2.648s19.88-7.663,24.073-17.012c2.407-5.416,2.768-11.535,4.895-17.072,4.795-12.418,17.573-19.921,24.434-31.335,6.56-10.913,9.108-12.2,10.773-24.8s5.336-26.2,15.688-33.6c10.833-7.764,26.079-6.279,38.116-.321s19.479,3.631,29.53,12.378a244.735,244.735,0,0,0,58.6,37.755c-2.006-17.493-5.236-37.012-19.439-47.424-4.012-2.989-9.088-5.276-11.214-9.85-3.391-7.282,2.407-16.169-.221-23.772s-12.618-10.412-17.052-17.313c-3.771-5.858-2.748-13.822.783-19.84s9.108-10.472,14.664-14.685q7.4-5.6,15.006-10.933a53.6,53.6,0,0,0,12.2-10.632c2.006-2.748,3.33-8.766,6.119-10.713C550.258,418.907,561.051,430.623,567.551,433.171Z" transform="translate(-50.683 -222.654)" opacity="0.1"/>
    <path id="Path_531" data-name="Path 531" d="M566.551,432.17c11.234,4.433,25-.883,31.616-10.974s6.419-23.832.843-34.545-15.888-18.5-27.263-22.548c-6.9-2.448-14.584-3.852-19.88-8.907-3.35-3.19-5.336-7.5-7.844-11.394-9.368-14.6-26.079-23.231-43.071-26.621s-34.565-2.187-51.858-.983c-6.46.461-14.043,1.625-16.972,7.4-2.186,4.333-.762,9.529-1.043,14.364-.9,15.387-18.055,23.913-33.041,27.6s-32.358,7.162-39.66,20.723c-6.54,12.177-1.866,26.942.16,40.623a101.387,101.387,0,0,1-14.6,68.669c-6.56,10.292-15.006,19.439-20.2,30.493a59.461,59.461,0,0,0-3.772,39.52c.983,3.872,2.367,7.8,1.685,11.736a20.649,20.649,0,0,1-4.534,8.727,102.07,102.07,0,0,1-73.162,38.959c2.287,8.606,10.612,14.042,18.536,18.055a206.007,206.007,0,0,0,42.489,16.209c9.89,2.568,20.242,4.393,30.312,2.648s19.88-7.663,24.073-17.012c2.407-5.416,2.768-11.535,4.895-17.072,4.795-12.418,17.574-19.92,24.434-31.335,6.56-10.913,9.108-12.2,10.773-24.8s5.336-26.2,15.688-33.6c10.833-7.764,26.079-6.279,38.116-.321s19.479,3.631,29.53,12.378a244.74,244.74,0,0,0,58.6,37.755c-2.006-17.493-5.236-37.012-19.439-47.424-4.012-2.989-9.088-5.276-11.214-9.85-3.39-7.282,2.408-16.169-.221-23.772s-12.618-10.411-17.052-17.313c-3.771-5.858-2.748-13.822.783-19.84s9.108-10.472,14.665-14.685q7.4-5.6,15.006-10.933a53.609,53.609,0,0,0,12.2-10.632c2.006-2.748,3.33-8.766,6.119-10.713C549.258,417.907,560.051,429.623,566.551,432.17Z" transform="translate(-51.689 -223.661)" fill="#916168"/>
    <g id="Group_77" data-name="Group 77" transform="translate(588.78 804.903)" opacity="0.1">
      <path id="Path_532" data-name="Path 532" d="M475.734,686.488a69.352,69.352,0,0,1,2.287-15.808l-1,.341a69.873,69.873,0,0,0-1.284,15.467Z" transform="translate(-407.3 -670.68)" fill="#fff"/>
      <path id="Path_533" data-name="Path 533" d="M520.352,735.641c-16.049.943-66.2-22.067-76.232-34.1a10.69,10.69,0,0,1-2.327-5.7,12.6,12.6,0,0,0,2.327,9.709c10.03,12.037,60.183,35.047,76.232,34.1,17.052-1,74.226,2.006,76.232-24.073a3.248,3.248,0,0,0-.281-2.126C591.709,737.487,536.983,734.658,520.352,735.641Z" transform="translate(-441.607 -645.367)" fill="#fff"/>
    </g>
    <rect id="Rectangle_62" data-name="Rectangle 62" width="2.006" height="82.25" transform="translate(746.766 296.357)" fill="#ffd77c" stroke="#ffab50" stroke-miterlimit="10" stroke-width="0.25"/>
    <rect id="Rectangle_63" data-name="Rectangle 63" width="2.006" height="82.25" transform="translate(748.772 296.357)" fill="#ffd77c" stroke="#ffab50" stroke-miterlimit="10" stroke-width="0.25"/>
    <rect id="Rectangle_64" data-name="Rectangle 64" width="2.006" height="82.25" transform="translate(750.778 296.357)" fill="#ffd77c" stroke="#ffab50" stroke-miterlimit="10" stroke-width="0.25"/>
    <rect id="Rectangle_65" data-name="Rectangle 65" width="2.006" height="82.25" transform="translate(752.784 296.357)" fill="#ffd77c" stroke="#ffab50" stroke-miterlimit="10" stroke-width="0.25"/>
    <rect id="Rectangle_66" data-name="Rectangle 66" width="2.006" height="82.25" transform="translate(754.791 296.357)" fill="#ffd77c" stroke="#ffab50" stroke-miterlimit="10" stroke-width="0.25"/>
    <rect id="Rectangle_67" data-name="Rectangle 67" width="2.006" height="82.25" transform="translate(756.797 296.357)" fill="#ffd77c" stroke="#ffab50" stroke-miterlimit="10" stroke-width="0.25"/>
    <rect id="Rectangle_68" data-name="Rectangle 68" width="2.006" height="82.25" transform="translate(758.803 296.357)" fill="#ffd77c" stroke="#ffab50" stroke-miterlimit="10" stroke-width="0.25"/>
  </g>
</svg>
